<?xml version="1.0" encoding="UTF-8"?>
<!-- Created with Inkscape (http://www.inkscape.org/) -->
<svg width="768" height="1024" version="1.1" viewBox="0 0 768 1024" xmlns="http://www.w3.org/2000/svg">
 <g transform="translate(-1.6984 -22.079)">
  <path d="m195.81 782.32c0.72187-0.28887 1.5844-0.25335 1.9167 0.0789 0.33229 0.33229-0.25834 0.56864-1.3125 0.52522-1.165-0.048-1.4019-0.28494-0.60417-0.60416zm17.938 0.0208c0.6875-0.27741 1.8125-0.27741 2.5 0s0.125 0.50439-1.25 0.50439-1.9375-0.22698-1.25-0.50439zm75.5-0.0271c0.9625-0.25152 2.5375-0.25152 3.5 0 0.9625 0.25153 0.175 0.45733-1.75 0.45733s-2.7125-0.2058-1.75-0.45733zm61 0c0.9625-0.25152 2.5375-0.25152 3.5 0 0.9625 0.25153 0.175 0.45733-1.75 0.45733s-2.7125-0.2058-1.75-0.45733zm55.512-0.0179c1.2439-0.23919 3.0439-0.23011 4 0.0202 0.95609 0.25029-0.0617 0.446-2.2617 0.4349-2.2-0.0111-2.9822-0.21589-1.7383-0.45508zm52.988-0.03969c6.7375-0.17301 17.762-0.17301 24.5 0s1.225 0.31456-12.25 0.31456-18.988-0.14155-12.25-0.31456zm126.5 0.0577c0.9625-0.25152 2.5375-0.25152 3.5 0 0.9625 0.25153 0.175 0.45733-1.75 0.45733s-2.7125-0.2058-1.75-0.45733zm-301.85-2.5607-1.905-2.25 2.25 1.905c2.1144 1.7902 2.7052 2.595 1.905 2.595-0.18976 0-1.2023-1.0125-2.25-2.25zm13.095 0.25c0.99549-1.1 2.035-2 2.31-2s-0.31449 0.9-1.31 2-2.035 2-2.31 2 0.31449-0.9 1.31-2zm59.583 1.7393c0.22917-0.14336 1.5417-1.1559 2.9167-2.25l2.5-1.9893-1.905 2.25c-1.0477 1.2375-2.3602 2.25-2.9167 2.25-0.55643 0-0.82418-0.1173-0.59502-0.26066zm42.841-2.4893-2.4243-2.75 3 2.5c1.65 1.375 3.1875 2.6125 3.4167 2.75 0.22916 0.1375-0.0299 0.25-0.57569 0.25s-2.0833-1.2375-3.4167-2.75zm130.58 0.75c0.99549-1.1 2.035-2 2.31-2s-0.31449 0.9-1.31 2-2.035 2-2.31 2 0.31449-0.9 1.31-2zm50.372 0.25c-1.2439-1.5861-1.2085-1.6214 0.37756-0.37756 0.9625 0.75485 1.75 1.5424 1.75 1.75 0 0.82304-0.82119 0.29331-2.1276-1.3724zm-397.37-2.2386c-0.35034-0.56686 0.0511-0.7345 0.94098-0.39301 1.7324 0.66479 2.0494 1.3816 0.61096 1.3816-0.51754 0-1.2159-0.44485-1.5519-0.98855zm160.95-0.078c-0.36253-0.58659-0.44468-1.281-0.18255-1.5431 0.26212-0.26213 0.74306 0.21781 1.0688 1.0665 0.67618 1.7621 0.0999 2.0721-0.8862 0.4766zm158.11-0.2266c0.37553-0.98622 0.93469-1.5412 1.2426-1.2333s6.4e-4 1.1148-0.68278 1.7931c-0.98762 0.98026-1.1025 0.8654-0.5598-0.5598zm12.895 0.2266c-0.36253-0.58659-0.44468-1.281-0.18255-1.5431 0.26212-0.26213 0.74306 0.21781 1.0688 1.0665 0.67618 1.7621 0.0998 2.0721-0.8862 0.4766zm-285.46-0.31101c0-0.20765 0.7875-0.99515 1.75-1.75 1.5861-1.2439 1.6214-1.2085 0.37756 0.37756-1.3064 1.6658-2.1276 2.1955-2.1276 1.3724zm-51.985-4.1075c-1.8578-1.9168-3.1836-3.6388-2.9462-3.8269 0.23741-0.18802 1.9463 1.3802 3.7976 3.485 4.2067 4.7827 3.6639 5.0006-0.85147 0.34185zm262.44-37.515c0-22.275 0.13167-31.388 0.29261-20.25 0.16093 11.138 0.16093 29.362 0 40.5-0.16094 11.138-0.29261 2.025-0.29261-20.25zm156.74 37.5c0.0204-1.65 0.2445-2.2039 0.49804-1.231s0.23687 2.323-0.0371 3c-0.27393 0.67703-0.48137-0.11903-0.46099-1.769zm-254.04-1.5c0-1.375 0.22698-1.9375 0.50439-1.25s0.27741 1.8125 0 2.5-0.50439 0.125-0.50439-1.25zm-107.16-0.37756c0-0.20765 0.7875-0.99515 1.75-1.75 1.5861-1.2439 1.6214-1.2085 0.37756 0.37756-1.3064 1.6658-2.1276 2.1955-2.1276 1.3724zm265.61-4.4704-1.894-2.6521 2.3385 2.2222c1.2862 1.2222 2.1385 2.4156 1.894 2.6521-0.24444 0.23641-1.2968-0.76359-2.3385-2.2222zm-327.41-1.6521c0.0204-1.65 0.2445-2.2039 0.49804-1.231s0.23687 2.323-0.0371 3c-0.27393 0.67703-0.48137-0.11903-0.46099-1.769zm399.37-0.20687c-0.54268-1.4252-0.42782-1.5401 0.5598-0.5598 0.68342 0.67834 0.99067 1.4852 0.68278 1.7931s-0.86705-0.24711-1.2426-1.2333zm-353.06-4.2931c0.99549-1.1 2.035-2 2.31-2s-0.31449 0.9-1.31 2-2.035 2-2.31 2 0.31449-0.9 1.31-2zm-29.576-1.75-2.4243-2.75 2.75 2.4243c2.5703 2.2659 3.2086 3.0757 2.4243 3.0757-0.17912 0-1.4166-1.2375-2.75-2.75zm-14.924 0.37244c0-0.20765 0.7875-0.99515 1.75-1.75 1.5861-1.2439 1.6214-1.2085 0.37756 0.37756-1.3064 1.6658-2.1276 2.1955-2.1276 1.3724zm66.3-5.6224c0-3.025 0.18747-4.2625 0.41659-2.75 0.22913 1.5125 0.22913 3.9875 0 5.5-0.22912 1.5125-0.41659 0.275-0.41659-2.75zm-19.068 1c0-1.925 0.2058-2.7125 0.45733-1.75 0.25152 0.9625 0.25152 2.5375 0 3.5-0.25153 0.9625-0.45733 0.175-0.45733-1.75zm-40.482 0.33772c0.6875-0.27741 1.8125-0.27741 2.5 0s0.125 0.50439-1.25 0.50439-1.9375-0.22698-1.25-0.50439zm194.12-8.0877c-1.2439-1.5861-1.2085-1.6214 0.37756-0.37756 1.6658 1.3064 2.1955 2.1276 1.3724 2.1276-0.20765 0-0.99515-0.7875-1.75-1.75zm-164.06-1.9331c0.72187-0.28887 1.5844-0.25335 1.9167 0.0789 0.33229 0.33229-0.25834 0.56864-1.3125 0.52522-1.165-0.048-1.4019-0.28494-0.60417-0.60416zm88.188-0.25787c0-0.51754 0.44485-1.2159 0.98855-1.5519 0.56686-0.35034 0.7345 0.0511 0.39301 0.94098-0.66479 1.7324-1.3816 2.0494-1.3816 0.61096zm162.77 0.21625c1.7974-0.22256 4.4974-0.21797 6 0.0102 1.5026 0.22818 0.0321 0.41027-3.2679 0.40466-3.3-6e-3 -4.5294-0.1923-2.7321-0.41486zm86.732 0.0907c7.0811-0.74114 16.504-0.80734 16.502-0.11593-1e-3 0.4125-4.3896 0.67798-9.7521 0.58996-5.3625-0.088-8.4-0.30133-6.75-0.47403zm-345.75-1.0282c0.6875-0.27741 1.8125-0.27741 2.5 0s0.125 0.50439-1.25 0.50439-1.9375-0.22698-1.25-0.50439zm169.12-1.0878c-1.2439-1.5861-1.2085-1.6214 0.37756-0.37756 1.6658 1.3064 2.1955 2.1276 1.3724 2.1276-0.20765 0-0.99515-0.7875-1.75-1.75zm23.533-0.48277c-1.4017-1.6429-1.4597-1.8889-0.21946-0.93106 1.5041 1.1616 1.7282 0.8906 2.0819-2.5172 0.37197-3.5838 0.40672-3.5265 0.56448 0.93106 0.0924 2.6125 0.0128 4.75-0.17691 4.75-0.18976 0-1.2023-1.0048-2.25-2.2328zm92.595 0.85521c0-0.20765 0.7875-0.99515 1.75-1.75 1.5861-1.2439 1.6214-1.2085 0.37756 0.37756-1.3064 1.6658-2.1276 2.1955-2.1276 1.3724zm-146.84-3.6224c0-1.375 0.22698-1.9375 0.50439-1.25s0.27741 1.8125 0 2.5-0.50439 0.125-0.50439-1.25zm-161.29-4.75c-1.2439-1.5861-1.2085-1.6214 0.37756-0.37756 0.9625 0.75485 1.75 1.5424 1.75 1.75 0 0.82304-0.82119 0.29331-2.1276-1.3724zm184-3c-1.2439-1.5861-1.2085-1.6214 0.37756-0.37756 1.6658 1.3064 2.1955 2.1276 1.3724 2.1276-0.20765 0-0.99515-0.7875-1.75-1.75zm125.21-2.6318-2.414-3.1182 2.861 2.7197c1.5735 1.4958 2.6598 2.899 2.414 3.1182-0.24583 0.21919-1.5333-1.0047-2.861-2.7197zm-128.09-0.67724c0-0.58246 0.45-0.7809 1-0.44098s1 0.81648 1 1.059-0.45 0.44098-1 0.44098-1-0.47656-1-1.059zm-146.19-1.6241c0.72187-0.28887 1.5844-0.25335 1.9167 0.0789 0.33229 0.33229-0.25834 0.56864-1.3125 0.52522-1.165-0.048-1.4019-0.28494-0.60417-0.60416zm-8.0625-0.97917c0.6875-0.27741 1.8125-0.27741 2.5 0s0.125 0.50439-1.25 0.50439-1.9375-0.22698-1.25-0.50439zm250.9-0.08772c-0.25669-0.4125 3.8793-0.63076 9.191-0.48501 17.113 0.46955 18.999 0.87002 4.9667 1.0548-7.53 0.0991-13.901-0.15725-14.158-0.56975zm-256.84-0.93311c0.72187-0.28887 1.5844-0.25335 1.9167 0.0789 0.33229 0.33229-0.25834 0.56864-1.3125 0.52522-1.165-0.048-1.4019-0.28494-0.60417-0.60416zm87.06-2.0669c-1.2695-1.6188-1.2224-1.64 0.62756-0.28297 1.1 0.80687 2.1875 1.5944 2.4167 1.75 0.22916 0.15563-0.0532 0.28297-0.62756 0.28297-0.57432 0-1.6618-0.7875-2.4167-1.75zm-93.892-0.77417c-0.69572-0.83829-1.0713-1.7178-0.83459-1.9545 0.2367-0.23669 0.97964 0.44918 1.651 1.5242 1.4518 2.3247 0.96763 2.58-0.81639 0.43035zm186.89-0.22583c-1.2439-1.5861-1.2085-1.6214 0.37756-0.37756 1.6658 1.3064 2.1955 2.1276 1.3724 2.1276-0.20765 0-0.99515-0.7875-1.75-1.75zm174.13-1.1424c0-0.67413-0.45-0.94757-1-0.60765s-1 0.14148-1-0.44098 0.42344-1.059 0.94098-1.059c1.2346 0 2.4274 1.9649 1.6592 2.7332-0.33008 0.33007-0.60014 0.04858-0.60014-0.62555zm-362.81-4.6076c0.0204-1.65 0.2445-2.2039 0.49804-1.231s0.23687 2.323-0.0371 3c-0.27393 0.67703-0.48137-0.11903-0.46099-1.769zm-19.116-0.0833c0.048-1.165 0.28494-1.4019 0.60416-0.60417 0.28887 0.72187 0.25335 1.5844-0.0789 1.9167-0.3323 0.33229-0.56864-0.25834-0.52522-1.3125zm57.921-1.8097c0-0.21616 0.69837-0.661 1.5519-0.98855 0.88992-0.34149 1.2913-0.17385 0.94098 0.39301-0.58726 0.95021-2.4929 1.4054-2.4929 0.59554zm142.87-2.357c-1.2439-1.5861-1.2085-1.6214 0.37756-0.37756 0.9625 0.75485 1.75 1.5424 1.75 1.75 0 0.82304-0.82119 0.29331-2.1276-1.3724zm-177.14-3.3741c0.67834-0.68342 1.4852-0.99067 1.7931-0.68278s-0.24711 0.86705-1.2333 1.2426c-1.4252 0.54268-1.5401 0.42782-0.5598-0.5598zm144.54-2.8759c0-2.475 0.19502-3.4875 0.43337-2.25 0.23836 1.2375 0.23836 3.2625 0 4.5-0.23835 1.2375-0.43337 0.225-0.43337-2.25zm116.6 2.7268c0.42651-0.42529 9.0675-0.64928 19.202-0.49777l18.427 0.27548-19.202 0.49776c-10.561 0.27378-18.853 0.14981-18.427-0.27547zm-220.64-2.7268c0-1.925 0.2058-2.7125 0.45733-1.75 0.25152 0.9625 0.25152 2.5375 0 3.5-0.25153 0.9625-0.45733 0.175-0.45733-1.75zm-35.982 1.3107c0.9625-0.25152 2.5375-0.25152 3.5 0 0.9625 0.25153 0.175 0.45733-1.75 0.45733s-2.7125-0.2058-1.75-0.45733zm7.019-4e-3c0.97297-0.25354 2.323-0.23687 3 0.0371 0.67703 0.27393-0.11903 0.48137-1.769 0.46099-1.65-0.0204-2.2039-0.2445-1.231-0.49804zm287.81 0.43233c0.22917-0.14336 1.5417-1.1559 2.9167-2.25l2.5-1.9893-1.905 2.25c-1.0477 1.2375-2.3602 2.25-2.9167 2.25-0.55643 0-0.82418-0.1173-0.59502-0.26066zm-129.21-5.489c-1.2439-1.5861-1.2085-1.6214 0.37756-0.37756 0.9625 0.75485 1.75 1.5424 1.75 1.75 0 0.82304-0.82119 0.29331-2.1276-1.3724zm-133.44-4.5-2.9371-3.25 3.25 2.9371c3.0295 2.7378 3.7096 3.5629 2.9371 3.5629-0.1721 0-1.6346-1.4625-3.25-3.25zm-52.437-0.25c1.2918-1.375 2.5736-2.5 2.8486-2.5s-0.55688 1.125-1.8486 2.5-2.5736 2.5-2.8486 2.5 0.55688-1.125 1.8486-2.5zm70.158 0.5c0-1.375 0.22698-1.9375 0.50439-1.25s0.27741 1.8125 0 2.5-0.50439 0.125-0.50439-1.25zm75.921-0.58333c0.048-1.165 0.28494-1.4019 0.60416-0.60417 0.28887 0.72187 0.25335 1.5844-0.0789 1.9167-0.33229 0.33229-0.56864-0.25834-0.52522-1.3125zm70.921-2.0757c0-0.54579 1.2375-2.0833 2.75-3.4167l2.75-2.4243-2.5 3c-1.375 1.65-2.6125 3.1875-2.75 3.4167-0.1375 0.22916-0.25-0.0299-0.25-0.57569zm-146-1.7185c0-0.20765 0.7875-0.99515 1.75-1.75 1.5861-1.2439 1.6214-1.2085 0.37756 0.37756-1.3064 1.6658-2.1276 2.1955-2.1276 1.3724zm15.405-1.8724-1.905-2.25 2.25 1.905c2.1144 1.7902 2.7052 2.595 1.905 2.595-0.18976 0-1.2023-1.0125-2.25-2.25zm77.095 0.25c0.99549-1.1 2.035-2 2.31-2s-0.31449 0.9-1.31 2-2.035 2-2.31 2 0.31449-0.9 1.31-2zm153.64-0.0333c-1.2984-1.0817-1.9307-1.9667-1.405-1.9667s1.7703 0.9 2.7658 2c2.2869 2.527 1.6951 2.5125-1.3608-0.0333zm47.361 0.0333c0.99549-1.1 2.035-2 2.31-2s-0.31449 0.9-1.31 2-2.035 2-2.31 2 0.31449-0.9 1.31-2zm13.5-2c-0.90129-0.58246-1.0246-0.97549-0.30902-0.98469 0.65504-8e-3 1.4691 0.43469 1.809 0.98469 0.7673 1.2415 0.42112 1.2415-1.5 0zm-361.25-0.66228c0.6875-0.27741 1.8125-0.27741 2.5 0s0.125 0.50439-1.25 0.50439-1.9375-0.22698-1.25-0.50439zm16.062-0.0208c0.72187-0.28887 1.5844-0.25335 1.9167 0.0789 0.33229 0.33229-0.25834 0.56864-1.3125 0.52522-1.165-0.048-1.4019-0.28494-0.60417-0.60416zm45.438-6e-3c0.9625-0.25152 2.5375-0.25152 3.5 0 0.9625 0.25153 0.175 0.45733-1.75 0.45733s-2.7125-0.2058-1.75-0.45733zm90.562 6e-3c0.72187-0.28887 1.5844-0.25335 1.9167 0.0789 0.33229 0.33229-0.25834 0.56864-1.3125 0.52522-1.165-0.048-1.4019-0.28494-0.60417-0.60416zm4 0c0.72187-0.28887 1.5844-0.25335 1.9167 0.0789 0.33229 0.33229-0.25834 0.56864-1.3125 0.52522-1.165-0.048-1.4019-0.28494-0.60417-0.60416zm52.438-6e-3c0.9625-0.25152 2.5375-0.25152 3.5 0 0.9625 0.25153 0.175 0.45733-1.75 0.45733s-2.7125-0.2058-1.75-0.45733zm147.56-0.99378c0.72187-0.28887 1.5844-0.25335 1.9167 0.0789 0.33229 0.33229-0.25834 0.56864-1.3125 0.52522-1.165-0.048-1.4019-0.28494-0.60417-0.60416zm-48.543-49.01c0.97297-0.25354 2.323-0.23687 3 0.0371 0.67703 0.27393-0.11903 0.48137-1.769 0.46099-1.65-0.0204-2.2039-0.2445-1.231-0.49804zm-257.7-2.2627c-5.9866-2.416-12.844-8.9244-15.769-14.966-4.3881-9.0645-2.1726-24.158 5.1643-35.183 1.6085-2.4171 12.963-16.122 25.232-30.455 34.261-40.025 59.869-70.272 64.519-76.205l4.2108-5.3739-5.6292-8.6801c-12.089-18.641-22.829-38.673-28.78-53.68-11.334-28.582-12.555-62.49-3.294-91.5 7.0992-22.237 16.839-38.362 32.713-54.156 9.6539-9.6052 21.642-18.844 24.451-18.844 0.58972 0-1.7729 1.6831-5.2504 3.7403-8.271 4.8929-26.859 24.031-34.511 35.533-16.578 24.919-24.997 59.133-21.708 88.226 2.7083 23.958 13.644 52.094 30.792 79.223 3.0512 4.8273 6.5305 10.577 7.7317 12.777s2.7967 4.9632 3.5456 6.1406c1.2403 1.95 0.98269 2.6178-2.8928 7.5-2.3399 2.9477-7.7665 9.4094-12.059 14.359-11.385 13.128-61.317 71.41-69.76 81.425-3.9758 4.7162-8.9015 11.725-10.946 15.575-3.2866 6.189-3.7666 8.0127-4.1431 15.741-0.386 7.9228-0.17572 9.252 2.2471 14.204 4.3292 8.8486 12.54 14.379 22.718 15.302 20.928 1.8977 47.543-14.314 84.557-51.505 13.808-13.875 37.688-40.599 40.186-44.974 0.91333-1.5993 1.3258-1.4365 4.3101 1.7015 2.2083 2.3221 2.3916 2.6792 0.55402 1.0794-1.5103-1.3149-2.8878-2.2014-3.0609-1.9701-4.8039 6.4168-25.221 28.774-39.055 42.767-26.199 26.5-47.619 43.192-64.481 50.248-10.116 4.2333-23.836 5.0799-31.593 1.9494zm243.11-0.49424c-19.354-6.8301-46.796-28.006-74.021-57.119-13.118-14.028-29.204-32.431-28.347-32.431 0.24836 0 4.6461 4.8375 9.7728 10.75 39.914 46.032 75.444 74.571 99.294 79.759 3.9319 0.85521 5.0501 1.3529 3.124 1.3904-1.65 0.0321-6.0703-1.0251-9.8229-2.3494zm22.913 1.3157c6.6014-1.4851 14.544-6.8316 18.147-12.215 4.2482-6.3483 5.6056-11.71 4.9753-19.651-0.43457-5.4757-0.35714-5.9484 0.49132-3 2.4264 8.4319-1.3739 21.013-8.3638 27.689-3.958 3.7802-13.311 8.3312-16.839 8.1938-1.723-0.0671-1.2288-0.38329 1.5896-1.0174zm19.003-45.594c-2.3203-4.8657-3.8891-6.8334-32.109-40.272-34.215-40.542-59.895-71.284-62.565-74.896-1.2623-1.7073-2.9979-3.0717-3.857-3.032-0.85907 0.0397-8.6492 9.6166-17.311 21.282-8.6622 11.665-19.029 25.02-23.036 29.678-8.7703 10.192-11.061 10.997-15.375 5.4041-1.5613-2.0238-4.3013-5.1848-6.0888-7.0245s-3.25-4.1605-3.25-5.1574c0-0.99691-0.9-2.4612-2-3.2541s-2-2.4513-2-3.6856c0-1.2342-0.9-2.7257-2-3.3144s-2-2.0021-2-3.1408c0-1.1388-1.125-3.4074-2.5-5.0415-1.6894-2.0077-2.5-4.1812-2.5-6.7032 0-2.0527-0.66069-4.6056-1.4682-5.6733-0.8075-1.0676-1.4825-3.1928-1.5-4.7225-0.0175-1.5298-0.69769-3.0369-1.5116-3.3492-2.8643-1.0992-5.5217-6.9087-5.4833-11.987 0.034-4.4904 0.55505-5.5236 6.4965-12.882 9.6814-11.99 29.954-37.813 30.873-39.326 0.51586-0.84908-0.25494-2.6479-2.1425-5-1.6215-2.0206-6.4046-8.2863-10.629-13.924-4.2245-5.6375-8.0492-10.25-8.4995-10.25-1.1479 0-12.591-16.478-20.139-29-6.6122-10.969-15.975-30.349-15.988-33.095-8e-3 -1.5939 2.1626-3.9255 4.9921-5.3626 0.825-0.41902 0.27892 0.30003-1.2135 1.5979l-2.7135 2.3598 1.8151 5.0402c5.0855 14.121 22.542 43.345 35.478 59.393 2.9113 3.6116 7.8406 9.9954 10.954 14.186 7.2396 9.7451 8.1784 10.541 10.327 8.7579 0.90615-0.75204 7.0302-8.5696 13.609-17.372 20.009-26.773 31.13-44.631 37.77-60.652l3.8766-9.3535-2.1415-1.6477c-2.1406-1.6469-2.1404-1.6474 0.47331-1.1478 2.3269 0.44482 2.7357 0.0757 3.7127-3.3523 6.1988-21.75 1.445-43.552-12.595-57.764-2.669-2.7017-3.5027-3.8997-1.8527-2.6623 6.0236 4.5176 23.061 24.418 29.67 34.655 6.3821 9.8862 11.924 22.609 15.647 35.919 3.9652 14.177 4.456 18.794 3.9027 36.705-0.54927 17.779-2.4893 29.179-7.793 45.795-3.5599 11.153-15.499 34.601-24.908 48.918-4.9602 7.5477-9.0074 14.141-8.9936 14.653 0.0138 0.51118 1.4763 2.7733 3.25 5.0269 5.5791 7.0885 56.581 67.75 75.545 89.854 13.718 15.989 21.329 26.733 19.929 28.133-0.2148 0.21479-1.1851-1.2757-2.1563-3.3122zm-99.152-274.83c-1.864-1.4934-1.8518-1.5118 0.30887-0.46481 1.2375 0.59969 2.25 1.2995 2.25 1.5552 0 0.76522-0.51861 0.54424-2.5589-1.0904zm-100.44 0.06225c0-0.67743 8.1226-4.7181 8.575-4.2657 0.20963 0.20964-1.634 1.3602-4.0969 2.5568-2.4629 1.1966-4.4781 1.9656-4.4781 1.7089zm90-5.0073c-1.375-0.78602-2.05-1.4291-1.5-1.4291s2.125 0.64311 3.5 1.4291 2.05 1.4291 1.5 1.4291-2.125-0.64311-3.5-1.4291zm-74-2.5c0.825-0.53316 1.95-0.96937 2.5-0.96937s0.325 0.43621-0.5 0.96937-1.95 0.96937-2.5 0.96937-0.325-0.43621 0.5-0.96937zm67.5 0c-1.3187-0.56668-1.4891-0.87815-0.5-0.9144 0.825-0.0302 2.175 0.38124 3 0.9144 1.828 1.1813 0.24909 1.1813-2.5 0zm-62.688-1.6831c0.72187-0.28887 1.5844-0.25335 1.9167 0.0789 0.33229 0.33229-0.25834 0.56864-1.3125 0.52522-1.165-0.048-1.4019-0.28494-0.60417-0.60416zm4-1c0.72187-0.28887 1.5844-0.25335 1.9167 0.0789 0.33229 0.33229-0.25834 0.56864-1.3125 0.52522-1.165-0.048-1.4019-0.28494-0.60417-0.60416zm51 0c0.72187-0.28887 1.5844-0.25335 1.9167 0.0789 0.33229 0.33229-0.25834 0.56864-1.3125 0.52522-1.165-0.048-1.4019-0.28494-0.60417-0.60416zm-47.062-0.97917c0.6875-0.27741 1.8125-0.27741 2.5 0s0.125 0.50439-1.25 0.50439-1.9375-0.22698-1.25-0.50439zm42 0c0.6875-0.27741 1.8125-0.27741 2.5 0s0.125 0.50439-1.25 0.50439-1.9375-0.22698-1.25-0.50439zm-36.481-1.0307c0.97297-0.25354 2.323-0.23687 3 0.0371 0.67703 0.27393-0.11903 0.48137-1.769 0.46099-1.65-0.0204-2.2039-0.2445-1.231-0.49804zm29.981 4e-3c0.9625-0.25152 2.5375-0.25152 3.5 0 0.9625 0.25153 0.175 0.45733-1.75 0.45733s-2.7125-0.2058-1.75-0.45733zm-18.5-1.0479c2.8875-0.202 7.6125-0.202 10.5 0s0.525 0.36728-5.25 0.36728-8.1375-0.16528-5.25-0.36728zm38.25-54.763c-2.475-1.3253-4.1446-2.43-3.7102-2.4548 1.062-0.0608 8.7102 3.8688 8.7102 4.4751 0 0.66249 0.0415 0.67926-5-2.0203zm-60.5-4.0361c1.65-0.75553 3.675-1.3597 4.5-1.3427 0.825 0.017-0.075 0.63751-2 1.3788-4.5657 1.7582-6.3621 1.7323-2.5-0.0361zm50.5 0.03611c-1.925-0.74131-2.825-1.3618-2-1.3788 0.825-0.017 2.85 0.58718 4.5 1.3427 3.8621 1.7684 2.0657 1.7944-2.5 0.0361zm-43.188-2.1831c0.72187-0.28887 1.5844-0.25335 1.9167 0.0789 0.33229 0.33229-0.25834 0.56864-1.3125 0.52522-1.165-0.048-1.4019-0.28494-0.60417-0.60416zm37 0c0.72187-0.28887 1.5844-0.25335 1.9167 0.0789 0.33229 0.33229-0.25834 0.56864-1.3125 0.52522-1.165-0.048-1.4019-0.28494-0.60417-0.60416zm-33-1c0.72187-0.28887 1.5844-0.25335 1.9167 0.0789 0.33229 0.33229-0.25834 0.56864-1.3125 0.52522-1.165-0.048-1.4019-0.28494-0.60417-0.60416zm29 0c0.72187-0.28887 1.5844-0.25335 1.9167 0.0789 0.33229 0.33229-0.25834 0.56864-1.3125 0.52522-1.165-0.048-1.4019-0.28494-0.60417-0.60416zm-23.051-1.0242c1.2439-0.23919 3.0439-0.23011 4 0.0202 0.95609 0.25029-0.0617 0.446-2.2617 0.4349-2.2-0.0111-2.9822-0.21589-1.7383-0.45508zm15 0c1.2439-0.23919 3.0439-0.23011 4 0.0202 0.95609 0.25029-0.0617 0.446-2.2617 0.4349-2.2-0.0111-2.9822-0.21589-1.7383-0.45508z" fill="#d3b4f1"/>
  <path d="m498.38 637.56c-15.221-3.4456-35.831-16.554-58.439-37.168-9.5121-8.6732-33.332-33.506-37.821-39.43-1.8612-2.456-0.33533-1.0904 3.3909 3.0346 21.118 23.378 50.183 49.84 66.074 60.155 12.771 8.2904 25.33 12.845 35.423 12.845 12.294 0 21.484-5.2741 26.768-15.362 2.229-4.2557 2.69-6.4272 2.685-12.648-5e-3 -6.5666-0.45897-8.4508-3.6119-15-2.2766-4.7288-6.8755-11.331-12.475-17.91-15.907-18.689-26.509-31.3-49.312-58.656-12.343-14.808-24.105-28.772-26.138-31.03-2.0323-2.2582-4.2205-5.1832-4.8626-6.5-0.97517-1.9997-0.95249-2.1399 0.13759-0.85074 0.71785 0.84895 9.3872 11.199 19.265 23 9.878 11.801 28.786 34.281 42.018 49.956 29.636 35.108 29.934 35.491 33.259 42.664 2.2581 4.8715 2.7099 7.2405 2.734 14.336 0.0258 7.5744-0.29275 9.0807-2.925 13.833-3.4668 6.2585-7.1609 9.6202-14.055 12.79-6.4908 2.9845-14.427 3.6809-22.115 1.9406zm-247.01-0.6524c-5.4707-1.5855-12.676-7.1986-15.836-12.337-2.8458-4.6274-3.0291-5.5354-3.0291-15 0-9.7475 0.12237-10.302 3.7712-17.074 2.0742-3.85 7.0242-10.859 11-15.575 8.4427-10.015 58.375-68.297 69.76-81.425 14.359-16.558 16.445-19.508 15.201-21.5-0.93052-1.49-0.81865-1.7045 0.68408-1.3115 1.2663 0.33114 3.0934-1.1363 6.1902-4.9716 2.4165-2.9928 8.2646-9.8909 12.996-15.329 11.918-13.699 30.902-37.576 30.881-38.841-9e-3 -0.57561-2.7357-4.4216-6.0587-8.5466s-7.4464-9.6455-9.1631-12.268c-3.4354-5.2478-4.7196-4.8674-4.746 1.406-0.0463 11.009-13.261 41.545-26.898 62.155-6.1924 9.3591-6.9997 11.087-6.0744 13 1.0287 2.1271 1.0111 2.1366-0.48811 0.26534-0.85535-1.0676-1.5552-2.2896-1.5552-2.7156s-2.4293-4.5024-5.3984-9.0589c-17.899-27.467-29.909-57.7-32.688-82.284-4.3373-38.368 10.875-81.508 38.085-108l6.1625-6-3.0712 5c-6.8207 11.104-10.043 25.969-8.2995 38.28 1.4248 10.059 3.3921 15.814 5.2633 15.398 1.1592-0.25764 1.1982-0.0691 0.19623 0.95-1.9612 1.9948-1.5566 3.6698 3.5914 14.871 7.1988 15.664 28.689 50 31.294 50 0.45022 0 4.275 4.6125 8.4995 10.25 4.2245 5.6375 9.0076 11.903 10.629 13.924 1.8875 2.3521 2.6583 4.1509 2.1425 5-0.91916 1.5129-21.192 27.336-30.873 39.326-5.9415 7.3583-6.4625 8.3916-6.4965 12.882-0.0384 5.0788 2.619 10.888 5.4833 11.987 0.81387 0.31231 1.4941 1.8195 1.5116 3.3492 0.0175 1.5298 0.6925 3.6549 1.5 4.7225 0.80751 1.0676 1.4682 3.6206 1.4682 5.6733 0 2.522 0.81062 4.6955 2.5 6.7032 1.375 1.6341 2.5 3.9028 2.5 5.0415 0 1.1388 0.9 2.5521 2 3.1408s2 2.0802 2 3.3144c0 1.2342 0.9 2.8927 2 3.6856s2 2.2572 2 3.2541c0 0.99692 1.4625 3.3178 3.25 5.1574s4.5275 5.0007 6.0888 7.0245c4.3147 5.5928 6.6052 4.7877 15.375-5.4041 4.0078-4.6574 14.374-18.012 23.036-29.678 8.6622-11.665 16.092-21.242 16.511-21.282 1.6186-0.15331-35.824 49.775-44.887 59.856-3.0463 3.3882-4.3707 5.6403-3.9546 6.7246 0.53744 1.4006 0.39738 1.4409-0.99407 0.28607-1.3767-1.1426-1.7642-1.086-2.583 0.37712-2.3706 4.2361-26.313 31.033-40.14 44.926-35.588 35.758-61.405 52.025-82.003 51.668-2.8604-0.0496-6.6117-0.49909-8.3361-0.99887zm191.27-319.41c1.0506-4.7577 2.484-7.616 1.7552-3.5-0.34083 1.925-1.0242 4.175-1.5187 5-0.5876 0.98046-0.66952 0.46092-0.23652-1.5zm2.56-10c0.0204-1.65 0.2445-2.2039 0.49804-1.231s0.23687 2.323-0.0371 3c-0.27393 0.67703-0.48137-0.11903-0.46099-1.769zm-85.382-1.1831c0.72187-0.28887 1.5844-0.25335 1.9167 0.0789 0.33229 0.33229-0.25834 0.56864-1.3125 0.52522-1.165-0.048-1.4019-0.28494-0.60417-0.60416zm3.9375-0.97917c0.6875-0.27741 1.8125-0.27741 2.5 0s0.125 0.50439-1.25 0.50439-1.9375-0.22698-1.25-0.50439zm40.062-0.0208c0.72187-0.28887 1.5844-0.25335 1.9167 0.0789 0.33229 0.33229-0.25834 0.56864-1.3125 0.52522-1.165-0.048-1.4019-0.28494-0.60417-0.60416zm-32.062-0.9792c0.6875-0.27741 1.8125-0.27741 2.5 0s0.125 0.50439-1.25 0.50439-1.9375-0.22698-1.25-0.50439zm24.519-0.0307c0.97297-0.25354 2.323-0.23687 3 0.0371 0.67703 0.27393-0.11903 0.48137-1.769 0.46099-1.65-0.0204-2.2039-0.2445-1.231-0.49804zm-16.019-1.0421c2.6125-0.206 6.8875-0.206 9.5 0s0.475 0.37454-4.75 0.37454-7.3625-0.16854-4.75-0.37454zm66.05-6.265c0-3.025 0.18747-4.2625 0.41659-2.75 0.22913 1.5125 0.22913 3.9875 0 5.5-0.22912 1.5125-0.41659 0.275-0.41659-2.75zm-1.1418-10c0-1.375 0.22698-1.9375 0.50439-1.25s0.27741 1.8125 0 2.5-0.50439 0.125-0.50439-1.25zm-1.0789-4.5833c0.048-1.165 0.28494-1.4019 0.60416-0.60417 0.28887 0.72187 0.25335 1.5844-0.0789 1.9167-0.33229 0.33229-0.56864-0.25834-0.52522-1.3125zm-3.9165-9.9595c-1.6755-3.6773-1.3558-4.4618 0.45586-1.1188 0.84602 1.5611 1.3511 3.0255 1.1224 3.2542s-0.93892-0.73225-1.5783-2.1355zm-37.35-28.14c0.72187-0.28887 1.5844-0.25335 1.9167 0.0789 0.33229 0.33229-0.25834 0.56864-1.3125 0.52522-1.165-0.048-1.4019-0.28494-0.60417-0.60416zm-35-1c0.72187-0.28887 1.5844-0.25335 1.9167 0.0789 0.33229 0.33229-0.25834 0.56864-1.3125 0.52522-1.165-0.048-1.4019-0.28494-0.60417-0.60416zm25.188-0.31689-4.5-0.69961 4-0.0505c2.2-0.0278 5.125 0.30978 6.5 0.75013 3.1582 1.0114 0.50562 1.0114-6 0zm-20.75-0.68933c0.9625-0.25152 2.5375-0.25152 3.5 0 0.9625 0.25153 0.175 0.45733-1.75 0.45733s-2.7125-0.2058-1.75-0.45733zm9.5-1.0164c1.2375-0.23836 3.2625-0.23836 4.5 0 1.2375 0.23835 0.225 0.43337-2.25 0.43337s-3.4875-0.19502-2.25-0.43337z" fill="#a895e5"/>
  <path d="m193.5 781.66c-16.208-4.2341-24.165-15.147-16.577-22.735 3.9008-3.9008 7.9233-3.8748 12.428 0.0802 4.9375 4.3352 9.6891 5.9967 17.149 5.9967 12.903 0 19.225-5.9248 15.364-14.399-1.4476-3.1772-6.5158-5.1954-15.37-6.1207-20.097-2.1002-30.046-10.025-31.238-24.883-0.71332-8.8864 1.6862-15.635 7.6966-21.645 6.4403-6.4403 12.575-8.4463 25.548-8.3534 11.764 0.0843 19.4 2.5087 25.631 8.1382 3.3224 3.0015 3.8647 4.0798 3.8374 7.6292-0.0344 4.468-1.2321 6.6486-4.6525 8.4703-3.4191 1.821-6.3341 1.3867-10.131-1.5094-4.7821-3.6475-9.6556-5.234-16.185-5.2686-9.2791-0.0492-14.848 4.6084-13.581 11.359 0.96096 5.1223 3.7815 6.5059 17.458 8.5637 17.549 2.6406 25.585 7.7972 29.195 18.734 1.5555 4.7131 0.71011 16.9-1.4627 21.086-2.7628 5.323-9.3056 10.939-15.434 13.249-7.1151 2.6812-22.394 3.5086-29.674 1.607zm22.035-0.74922c14.625-2.7036 23.034-11.06 24.213-24.062 0.68041-7.5037-1.1082-13.739-5.3686-18.717-4.8704-5.69-10.611-8.0583-24.653-10.17-11.321-1.7027-12.43-2.0666-14.976-4.9149-1.5125-1.6919-2.75-4.1647-2.75-5.4953 0-7.4082 5.1952-11.543 14.5-11.54 7.8859 2e-3 12.416 1.3476 17.115 5.0824 3.0459 2.4206 4.4887 2.9421 6.8701 2.4831 5.5098-1.0618 8.2652-7.435 5.4715-12.655-2.2896-4.2782-13.21-9.125-23.457-10.411-6.2116-0.77948-17.527 0.95389-22.376 3.4278-4.7077 2.4017-8.7811 6.5102-11.451 11.55-2.8403 5.3606-2.9955 17.374-0.29085 22.513 4.7511 9.027 11.852 13.007 26.726 14.978 4.6155 0.61168 9.8473 1.5744 11.626 2.1395 9.3039 2.9552 9.6596 15.095 0.5686 19.409-4.7018 2.2311-16.276 2.3474-21.38 0.21474-1.9627-0.82006-5.1702-2.8973-7.1278-4.6161-1.9576-1.7188-4.676-3.1251-6.0409-3.1251-3.601 0-7.7544 4.5535-7.7544 8.5015 0 10.939 21.172 18.987 40.535 15.407zm303.94 0.71778c-2.808-1.2445-5.4791-5.1116-5.4732-7.9238 1e-3 -0.66162 6.9824-18.753 15.513-40.203 17.01-42.768 17.994-44.504 25.25-44.496 7.8629 8e-3 9.2498 1.8538 17.782 23.669 4.2655 10.905 11.287 28.508 15.604 39.117s7.8482 20.642 7.8482 22.295c0 4.6061-3.8876 7.9149-9.2996 7.9149-5.3939 0-6.7824-1.381-10.68-10.622l-2.9007-6.8777-35.926-0.54437-2.739 6.9812c-4.0424 10.303-8.5666 13.532-14.979 10.69zm8.4637-1.5943c0.99438-0.53218 3.0683-4.0197 4.6087-7.75 1.5404-3.7303 3.3926-7.4367 4.116-8.2364 1.0744-1.1877 4.4774-1.401 18.576-1.1646 9.4931 0.15919 17.778 0.71869 18.41 1.2433 0.63239 0.52463 2.1658 3.5237 3.4076 6.6646 2.9778 7.5318 5.4655 10.211 9.4821 10.211 4.1006 0 8.4605-3.3926 8.4605-6.5834 0-1.341-3.7631-11.771-8.3624-23.177-4.5993-11.407-11.368-28.465-15.041-37.907-3.6735-9.4423-7.5799-18.313-8.681-19.713-3.9917-5.0747-13.501-4.2549-16.434 1.4168-2.5581 4.9468-31.481 78.056-31.481 79.576 0 4.5166 8.2055 7.954 12.939 5.4205zm15.647-33.892c-0.87508-1.4159 10.119-28.612 11.698-28.937 1.0158-0.20931 2.9568 3.6922 6.5781 13.223 2.8254 7.4358 5.1372 14.207 5.1372 15.047 0 1.2808-1.8469 1.5273-11.441 1.5273-6.2925 0-11.68-0.3869-11.972-0.85978zm21.872-2.3902c-1.8631-6.1962-9.2618-24.183-10.053-24.439-0.86417-0.27966-10.406 23.136-10.406 25.537 0 0.79721 3.2573 1.1524 10.567 1.1524 10.493 0 10.563-0.0159 9.8908-2.25zm-281.87 35.173c-2.5329-3.0102-2.5889-3.4004-2.5889-18.05 0-11.912-0.33537-15.627-1.6405-18.173-0.90228-1.7602-7.0379-11.46-13.635-21.555-13.734-21.017-15.164-25.081-10.202-28.984 3.6991-2.9097 10.445-2.958 13.038-0.0934 1.0289 1.137 6.1612 8.8692 11.405 17.183 5.2438 8.3136 9.9842 15.257 10.534 15.43 0.55 0.17267 5.4596-7.0925 10.91-16.145 11.148-18.514 13.524-20.702 20.125-18.523 3.8263 1.2628 6.465 4.3275 6.465 7.5087 0 1.1414-6.3 12.287-14 24.767l-14 22.692v15.434c0 15.145-0.0484 15.491-2.5889 18.51-2.1556 2.5618-3.3123 3.0767-6.9111 3.0767s-4.7555-0.51497-6.9111-3.0767zm10.866 1.4556c3.6138-1.3867 4.5448-5.7174 4.5448-21.14v-14.861l13.536-21.939c7.4449-12.066 13.8-22.976 14.122-24.244 1.5379-6.0489-9.1519-9.8342-13.963-4.9446-1.2178 1.2375-6.1392 8.8256-10.936 16.863s-9.3676 15.148-10.156 15.803c-1.666 1.3827-2.8293-0.1533-15.039-19.858-4.2404-6.8438-8.4645-13.017-9.3868-13.718-2.6895-2.0449-8.2517-1.6169-10.862 0.83572-4.0276 3.7837-3.079 6.4284 8.9546 24.966 18.277 28.156 16.731 24.335 16.731 41.337 0 18.34 1.1026 21.234 8.1682 21.443 1.4675 0.0434 3.3967-0.20058 4.287-0.54223zm52.458 0.33938c-3.7541-2.8823-3.9133-4.7189-3.9133-45.137v-39.55l2.75-3.0759c2.1976-2.458 3.5734-3.087 6.8494-3.1316 2.2546-0.0307 5.0256 0.43999 6.1577 1.0458 1.1321 0.60587 10.232 12.802 20.223 27.102 9.9906 14.3 18.582 26.258 19.092 26.573 0.56043 0.34637 0.92756-9.1168 0.92756-23.909v-24.482l2.5889-3.0767c2.0609-2.4493 3.3698-3.0767 6.4182-3.0767 10.09 0 9.9929-0.43796 9.9929 44.982 0 40.497-0.31831 43.512-4.8496 45.937-3.2958 1.7639-9.6094 1.2939-12.431-0.92534-1.4025-1.1032-6.7088-7.9657-11.792-15.25-5.083-7.2843-13.109-18.55-17.835-25.035l-8.593-11.79-1 49.258-2.8058 2.4116c-3.0963 2.6613-9.0433 3.2316-11.781 1.1298zm10.898-1.7572c2.5863-2.4095 2.3564 0.21201 2.5404-28.961 0.11031-17.492 0.45415-23.5 1.3448-23.5 1.3149 0 6.6878 7.1375 25.229 33.515 6.7599 9.6168 13.254 18.262 14.432 19.213 3.0856 2.4893 8.9663 2.2579 12.143-0.47776l2.6126-2.25 0.19319-40.834 0.19319-40.834-2.3608-1.9159c-3.0211-2.4518-8.2521-2.4544-11.278-6e-3 -2.357 1.9072-2.3612 1.9519-2.6581 28-0.16354 14.35-0.6563 26.09-1.095 26.09-1.2927 0-3.0293-2.3326-20.101-27-19.615-28.343-20.184-29-25.112-29-10.002 0-9.8947-0.49753-9.8947 45.996v39.095l2.4546 2.4545c3.0934 3.0934 8.2789 3.2832 11.357 0.41559zm84.643 0.58441-2.4546-2.4545v-82.182l4.9091-4.9091h52.245l3.0464 3.0464c2.6223 2.6223 2.9641 3.5537 2.4551 6.6902-0.32523 2.0041-1.517 4.5707-2.6483 5.7036-1.8997 1.9023-3.5651 2.098-21.782 2.5598l-19.725 0.5v18l29.367 0.5527 2.5667 3.0504c3.4839 4.1404 3.3614 8.2561-0.35636 11.974l-2.9231 2.9231h-29.154v18.883l40.177 0.61657 2.4114 2.8058c2.6264 3.0558 3.0675 6.5939 1.2481 10.01-2.4092 4.5235-3.0388 4.6191-30.632 4.6525l-26.295 0.0318zm57.091-1c3.0303-3.0303 3.2344-7.7656 0.45455-10.545-2.0639-2.0639-5.8076-2.3431-33.207-2.4758-4.2386-0.0205-8.194-0.52472-8.7896-1.1204-0.6684-0.6684-0.97219-4.6862-0.79345-10.493l0.28965-9.4104 14.5-0.5216c7.975-0.28688 15.246-0.88172 16.158-1.3219 3.9269-1.8948 4.611-9.9383 1.0943-12.866-1.0493-0.87342-6.4356-1.4528-16.652-1.791l-15.101-0.5v-20l20-0.5c11-0.275 20.53-0.84377 21.177-1.2639 0.64738-0.42016 1.6857-2.3051 2.3074-4.1888 0.91035-2.7584 0.83444-3.997-0.39006-6.3649-0.8362-1.617-2.2488-3.2196-3.1391-3.5612-0.89033-0.34165-12.771-0.62118-26.402-0.62118-23.558 0-24.914 0.10244-27.418 2.0726l-2.6349 2.0726v81.71l2.6349 2.0726c2.5086 1.9733 3.8524 2.0726 28.045 2.0726h25.411zm-107.86-229.61c-3.6795-4.4357-6.6615-8.8232-6.6267-9.75 0.0433-1.1502 0.36623-0.9282 1.0175 0.69936 0.52477 1.3114 3.0947 4.9114 5.7109 8 5.9974 7.0802 7.5651 9.1156 7.0207 9.1156-0.23781 0-3.4429-3.6292-7.1224-8.065zm44.715-73.185-1.905-2.25 2.25 1.905c1.2375 1.0477 2.25 2.0602 2.25 2.25 0 0.80025-0.80479 0.20945-2.595-1.905zm-105.9-157.33c2.4316-1.9206 13.579-7.674 14.015-7.2335 0.1717 0.17352-3.3613 2.2275-7.8512 4.5643s-7.2634 3.538-6.1634 2.6691zm106.24-0.33199c-3.7437-2.4-4.8185-3.6598-1.7424-2.0424 1.375 0.72298 3.625 1.9062 5 2.6293s1.825 1.2847 1 1.2478c-0.825-0.0368-2.7409-0.86245-4.2576-1.8348zm-7.2424-4.086c-0.33992-0.55-0.16803-1 0.38197-1s1.2781 0.45 1.618 1 0.16803 1-0.38197 1-1.2781-0.45-1.618-1zm-6.5-3c-0.825-0.53316-1.05-0.96937-0.5-0.96937s1.675 0.43621 2.5 0.96937 1.05 0.96937 0.5 0.96937-1.675-0.43621-2.5-0.96937zm-5-2c-0.825-0.53316-1.05-0.96937-0.5-0.96937s1.675 0.43621 2.5 0.96937 1.05 0.96937 0.5 0.96937-1.675-0.43621-2.5-0.96937zm-4.1875-1.6831c0.72187-0.28887 1.5844-0.25335 1.9167 0.0789 0.33229 0.33229-0.25834 0.56864-1.3125 0.52522-1.165-0.048-1.4019-0.28494-0.60417-0.60416zm-46.062-2.9792c0.6875-0.27741 1.8125-0.27741 2.5 0s0.125 0.50439-1.25 0.50439-1.9375-0.22698-1.25-0.50439zm33.062-0.0208c0.72187-0.28887 1.5844-0.25335 1.9167 0.0789 0.33229 0.33229-0.25834 0.56864-1.3125 0.52522-1.165-0.048-1.4019-0.28494-0.60417-0.60416zm44.345-1.3169c0-1.375 0.22698-1.9375 0.50439-1.25s0.27741 1.8125 0 2.5-0.50439 0.125-0.50439-1.25zm-0.0789-12.583c0.048-1.165 0.28494-1.4019 0.60416-0.60417 0.28887 0.72187 0.25335 1.5844-0.0789 1.9167-0.33229 0.33229-0.56864-0.25834-0.52522-1.3125zm-14.626-31.667-3.953-4.25 4.25 3.953c3.9525 3.6762 4.7095 4.547 3.953 4.547-0.16338 0-2.0759-1.9125-4.25-4.25zm-96.453 2.9371c0-0.1721 1.4625-1.6346 3.25-3.25l3.25-2.9371-2.9371 3.25c-2.7378 3.0295-3.5629 3.7096-3.5629 2.9371zm7.4326-6.578c0.71346-1.1544 4.5674-3.4827 4.5674-2.7593 0 0.23109-1.1804 1.1936-2.6231 2.1389-1.4427 0.9453-2.3177 1.2245-1.9443 0.62038zm80.067-2.6352c-2.2-1.355-3.6031-2.466-3.118-2.4688 1.0243-6e-3 7.618 3.9552 7.618 4.5764 0 0.63478-0.19789 0.54209-4.5-2.1076z" fill="#a09fa1"/>
  <path d="m494 635.13c-17.182-5.5073-39.623-21.754-65.08-47.116-17.808-17.742-34.82-36.31-29.535-32.237 3.1208 2.405 4.6151 2.8009 4.6151 1.2227 0-0.55026 2.8658-5.1628 6.3684-10.25 11.51-16.717 19.474-33.907 26.219-56.592 2.2565-7.5893 2.5544-9.7008 1.5869-11.25-2.1211-3.3964-0.3644-2.0189 2.5211 1.9769 3.2026 4.4349 49.192 59.384 79.674 95.196 5.5995 6.5786 10.198 13.181 12.475 17.91 3.153 6.5492 3.6067 8.4334 3.6119 15 5e-3 6.2206-0.45603 8.3921-2.685 12.648-3.2739 6.2506-9.4404 11.721-15.566 13.808-5.9897 2.0409-17.313 1.893-24.205-0.31619zm-101.13-85.88c-1.2439-1.5861-1.2085-1.6214 0.37756-0.37756 1.6658 1.3064 2.1955 2.1276 1.3724 2.1276-0.20765 0-0.99515-0.7875-1.75-1.75zm-5-6c-1.2439-1.5861-1.2085-1.6214 0.37756-0.37756 1.6658 1.3064 2.1955 2.1276 1.3724 2.1276-0.20765 0-0.99515-0.7875-1.75-1.75zm-1.8724-4.829c0-0.31842 2.2-3.1309 4.889-6.25 6.283-7.2881 23.989-30.352 34.869-45.421 4.6661-6.4625 8.9919-11.743 9.6129-11.735 0.78049 0.0106 0.80046 0.24216 0.0647 0.75-0.58546 0.40408-7.0667 8.8347-14.403 18.735-14.172 19.125-33.908 44.5-34.611 44.5-0.23195 0-0.42173-0.26053-0.42173-0.57896zm-54.956-68.359-2.0921-2.9381 7.1536-10.812c13.781-20.829 26.894-51.237 26.894-62.365 0-2.106 0.40729-4.0808 0.90508-4.3885 0.49779-0.30765 3.2588 2.6156 6.1355 6.496 2.8767 3.8805 6.9694 9.1599 9.0949 11.732 2.1255 2.5721 3.8645 5.1558 3.8645 5.7415 0 1.2884-18.992 25.174-30.898 38.859-4.7311 5.4382-10.551 12.301-12.933 15.25-2.3821 2.9493-4.7139 5.3624-5.1819 5.3624s-1.7923-1.3221-2.943-2.9381zm-6.0316-153.81c-0.59486-2.0625-1.5932-7.4274-2.2186-11.922-0.96423-6.9301-0.87429-9.5136 0.5918-17 2.2525-11.502 7.1338-21.562 13.26-27.328l4.781-4.5-4.6207 5.108c-8.6328 9.5431-12.982 21.667-13.055 36.392-0.0492 9.9374 2.1025 20.657 4.4447 22.142 0.98277 0.62334 0.88448 0.83068-0.39927 0.84223-1.1147 0.01-2.0766-1.2802-2.7846-3.7347zm114.8 2.0669c0.72187-0.28887 1.5844-0.25335 1.9167 0.0789 0.33229 0.33229-0.25834 0.56864-1.3125 0.52522-1.165-0.048-1.4019-0.28494-0.60417-0.60416zm3.2664-5.9002c0.048-1.165 0.28494-1.4019 0.60416-0.60417 0.28887 0.72187 0.25335 1.5844-0.0789 1.9167-0.33229 0.33229-0.56864-0.25834-0.52522-1.3125zm1-5c0.048-1.165 0.28494-1.4019 0.60416-0.60417 0.28887 0.72187 0.25335 1.5844-0.0789 1.9167-0.33229 0.33229-0.56864-0.25834-0.52522-1.3125zm-87.579-1.4167c1.1-0.47269 2.9-0.8462 4-0.83003 1.6078 0.0236 1.5097 0.1864-0.5 0.83003-3.4192 1.095-6.0482 1.095-3.5 0zm52.312-0.68311c0.72187-0.28887 1.5844-0.25335 1.9167 0.0789 0.33229 0.33229-0.25834 0.56864-1.3125 0.52522-1.165-0.048-1.4019-0.28494-0.60417-0.60416zm-45.062-0.97917c0.6875-0.27741 1.8125-0.27741 2.5 0s0.125 0.50439-1.25 0.50439-1.9375-0.22698-1.25-0.50439zm40 0c0.6875-0.27741 1.8125-0.27741 2.5 0s0.125 0.50439-1.25 0.50439-1.9375-0.22698-1.25-0.50439zm-30.75-1.4074c4.5054-0.78298 21.701-1.2501 20.917-0.56818-0.22917 0.19916-6.0417 0.58444-12.917 0.85617-7.5216 0.29728-10.708 0.18258-8-0.28799zm23.762 0.36245c1.2439-0.23919 3.0439-0.23011 4 0.0202 0.95609 0.25029-0.0617 0.446-2.2617 0.4349-2.2-0.0111-2.9822-0.21589-1.7383-0.45508zm48.524-6.7927c8e-3 -2.75 0.20172-3.7563 0.43157-2.2362 0.22986 1.5201 0.22371 3.7701-0.0136 5-0.23736 1.2299-0.42542-0.0138-0.41792-2.7638zm-1.2071-9.0833c0.048-1.165 0.28494-1.4019 0.60416-0.60417 0.28887 0.72187 0.25335 1.5844-0.0789 1.9167-0.33229 0.33229-0.56864-0.25834-0.52522-1.3125zm-5.3836-15.929c-0.91467-1.9181-1.4569-3.4874-1.2049-3.4874 0.68426 0 3.7199 6.1229 3.2625 6.5804-0.21698 0.21698-1.1429-1.1748-2.0576-3.0929zm-11.823-15.237c-1.2439-1.5861-1.2085-1.6214 0.37756-0.37756 0.9625 0.75485 1.75 1.5424 1.75 1.75 0 0.82304-0.82119 0.29331-2.1276-1.3724zm-18.872-8.4945c-4.8004-1.6686-13.07-3.511-19-4.2332-5.775-0.70332-8.7-1.3246-6.5-1.3807 9.0333-0.23024 29.03 4.3247 34.5 7.8587 2.2958 1.4832 0.27569 0.97931-9-2.2448zm-55 1.2445c0.825-0.53316 1.95-0.96937 2.5-0.96937s0.325 0.43621-0.5 0.96937-1.95 0.96937-2.5 0.96937-0.325-0.43621 0.5-0.96937zm11.843-4.0656c1.2887-0.51635 4.8887-1.1572 8-1.4241l5.6569-0.48531-7 1.4085c-8.2514 1.6603-9.8509 1.7807-6.6569 0.50092z" fill="#6a54ca"/>
  <path d="m360.23 771c0-1.925 0.2058-2.7125 0.45733-1.75 0.25152 0.9625 0.25152 2.5375 0 3.5-0.25153 0.9625-0.45733 0.175-0.45733-1.75zm-61.843-11.5c2e-3 -7.15 0.16103-9.9438 0.35396-6.2084 0.19293 3.7354 0.19149 9.5854-3e-3 13-0.19468 3.4146-0.35253 0.35841-0.35078-6.7916zm-95.576 6.8169c0.72187-0.28887 1.5844-0.25335 1.9167 0.0789 0.33229 0.33229-0.25834 0.56864-1.3125 0.52522-1.165-0.048-1.4019-0.28494-0.60417-0.60416zm264.44-1.0331c1.5125-0.22913 3.9875-0.22913 5.5 0 1.5125 0.22912 0.275 0.41659-2.75 0.41659s-4.2625-0.18747-2.75-0.41659zm82.5-3.0263c3.9875-0.18981 10.512-0.18981 14.5 0 3.9875 0.18982 0.725 0.34512-7.25 0.34512s-11.238-0.1553-7.25-0.34512zm-133.46-5.7575c8e-3 -2.75 0.20172-3.7563 0.43157-2.2362 0.22986 1.5201 0.22371 3.7701-0.0136 5-0.23736 1.2299-0.42542-0.0137-0.41792-2.7638zm-134.09-1c0.0204-1.65 0.2445-2.2039 0.49804-1.231s0.23687 2.323-0.0371 3c-0.27393 0.67703-0.48137-0.11903-0.46099-1.769zm134.22-39.5c0-10.175 0.1485-14.338 0.32999-9.25s0.18149 13.412 0 18.5-0.32999 0.925-0.32999-9.25zm39.837 5.5c0.0111-2.2 0.21589-2.9822 0.45508-1.7383s0.23011 3.0439-0.0202 4c-0.25029 0.95609-0.446-0.0617-0.4349-2.2617zm-222.85-22.75-1.905-2.25 2.25 1.905c1.2375 1.0477 2.25 2.0602 2.25 2.25 0 0.80025-0.80479 0.20945-2.595-1.905zm267.67-0.33333c0.048-1.165 0.28494-1.4019 0.60416-0.60417 0.28887 0.72187 0.25335 1.5844-0.0789 1.9167-0.33229 0.33229-0.56864-0.25834-0.52522-1.3125zm-100.08-3.7942c0-0.20765 0.7875-0.99515 1.75-1.75 1.5861-1.2439 1.6214-1.2085 0.37756 0.37756-1.3064 1.6658-2.1276 2.1955-2.1276 1.3724zm-195.25-4.3282c1.2375-0.23836 3.2625-0.23836 4.5 0 1.2375 0.23835 0.225 0.43337-2.25 0.43337s-3.4875-0.19502-2.25-0.43337zm195.15-133.29c-0.87922-0.514-3.7314-3.5378-6.3381-6.7196l-4.7395-5.785 5.0507 5.4923c4.4736 4.8647 5.1978 5.308 6.3381 3.8792 10.722-13.434 14.792-19.685 20.315-31.201 9.072-18.917 17.016-43.598 14.528-45.136-0.44708-0.27631-5.9208 6.353-12.164 14.732-14.988 20.116-31.537 41.563-34.696 44.967-2.5048 2.6986-2.513 2.7611-0.65304 5l1.8835 2.2672-4.6112-4.2409 11.369-14.422c6.2531-7.9323 17.207-22.372 24.343-32.087s13.46-17.684 14.054-17.707c0.59456-0.0232 1.679 1.0751 2.4098 2.4406 1.1624 2.1719 0.98368 3.6437-1.4264 11.75-6.7208 22.606-14.699 39.818-26.196 56.517-3.5026 5.0872-6.3684 9.6997-6.3684 10.25 0 1.2304-0.99975 1.2321-3.0986 5e-3zm-74.972-242.25c-1.4148-5.2416-2.9243-15.389-2.789-18.75 0.0553-1.375 0.49635 0.2 0.98001 3.5 1.4804 10.101 3.1228 17.533 3.9938 18.071 0.45589 0.28176 2.0791-0.23481 3.6071-1.1479l2.7782-1.6602-2.5 2.0964c-3.6363 3.0493-4.7855 2.65-6.0701-2.1091zm115.21 2.25c0-0.825 0.38674-2.4 0.85943-3.5 0.54172-1.2606 0.85943-1.4455 0.85943-0.5 0 0.825-0.38674 2.4-0.85943 3.5-0.54172 1.2606-0.85943 1.4455-0.85943 0.5zm-12.141-4.5c-2.475-1.3253-4.1446-2.43-3.7102-2.4548 1.062-0.0608 8.7102 3.8688 8.7102 4.4751 0 0.66249 0.0415 0.67926-5-2.0203zm-85-2.5c0.825-0.53316 1.95-0.96937 2.5-0.96937s0.325 0.43621-0.5 0.96937-1.95 0.96937-2.5 0.96937-0.325-0.43621 0.5-0.96937zm99.079-0.58333c0.048-1.165 0.28494-1.4019 0.60416-0.60417 0.28887 0.72187 0.25335 1.5844-0.0789 1.9167-0.33229 0.33229-0.56864-0.25834-0.52522-1.3125zm-94.33-1.5654c0.865-0.865 0.76719-1.8866-0.396-4.136-0.84961-1.643-2.6464-5.914-3.9928-9.4912-4.1069-10.911-3.1875-25.456 2.3057-36.474 2.5197-5.0542 2.4416-5.3484-0.98133-3.6948-2.1118 1.0202-2.1198 1.0035-0.24017-0.50217 3.4877-2.7939 17.236-7.498 26.675-9.1268 10.072-1.7381 18.995-1.3598 29.381 1.2452 7.6831 1.9272 21.271 7.149 22.102 8.4939 0.40845 0.66087-0.10263 0.63721-1.4158-0.0656-3.2616-1.7456-3.3748-1.3427-0.74456 2.6502 5.947 9.0279 7.2887 25.812 3.0579 38.251-1.3751 4.0431-3.172 8.3763-3.993 9.6294-1.3469 2.0557-1.3225 2.3878 0.25026 3.3996 1.5515 0.99809 1.5233 1.0433-0.25695 0.41179-8.0027-2.839-21.474-5.5803-29.943-6.0932-11.355-0.68767-28.541 1.5158-37.057 4.7512-5.8387 2.2181-6.2888 2.2893-4.7512 0.75172zm95.606-10.351c-3e-3 -4.95 0.16605-7.1011 0.37577-4.7802 0.20972 2.3209 0.21222 6.3709 6e-3 9-0.20667 2.6291-0.37827 0.73017-0.38131-4.2198zm-120.26-7.5833c0.0548-1.8792 0.47506-4.5417 0.93385-5.9167 0.53851-1.6139 0.63238-0.55056 0.26485 3-0.65131 6.2921-1.3465 7.9837-1.1987 2.9167zm119.06-3.9167c0-1.375 0.22698-1.9375 0.50439-1.25s0.27741 1.8125 0 2.5-0.50439 0.125-0.50439-1.25zm-1.9579-6.7c-1.4798-4.8216-0.76361-5.5378 0.8-0.8 0.65963 1.9987 1.0049 3.8285 0.76718 4.0662s-0.94291-1.2321-1.5672-3.2662zm-113.2-4.6732c0-1.08 3.9722-8.6268 4.5406-8.6268 0.275 0-0.46446 1.9125-1.6432 4.25-2.3182 4.5969-2.8974 5.4719-2.8974 4.3768zm5-10.004c0-0.20765 0.7875-0.99515 1.75-1.75 1.5861-1.2439 1.6214-1.2085 0.37756 0.37756-1.3064 1.6658-2.1276 2.1955-2.1276 1.3724zm97.405-4.8724-1.905-2.25 2.25 1.905c2.1144 1.7902 2.7052 2.595 1.905 2.595-0.18976 0-1.2023-1.0125-2.25-2.25zm-90.405-2.1276c0-0.20765 0.7875-0.99515 1.75-1.75 1.5861-1.2439 1.6214-1.2085 0.37756 0.37756-1.3064 1.6658-2.1276 2.1955-2.1276 1.3724zm85.872-1.3724c-1.2439-1.5861-1.2085-1.6214 0.37756-0.37756 0.9625 0.75485 1.75 1.5424 1.75 1.75 0 0.82304-0.82119 0.29331-2.1276-1.3724z" fill="#442c9f"/>
  <path d="m203.75 781.29c1.2375-0.23836 3.2625-0.23836 4.5 0 1.2375 0.23835 0.225 0.43337-2.25 0.43337s-3.4875-0.19502-2.25-0.43337zm-7.481-0.98726c0.97297-0.25354 2.323-0.23687 3 0.0371 0.67703 0.27393-0.11903 0.48137-1.769 0.46099-1.65-0.0204-2.2039-0.2445-1.231-0.49804zm17 0c0.97297-0.25354 2.323-0.23687 3 0.0371 0.67703 0.27393-0.11903 0.48137-1.769 0.46099-1.65-0.0204-2.2039-0.2445-1.231-0.49804zm76 0c0.97297-0.25354 2.323-0.23687 3 0.0371 0.67703 0.27393-0.11903 0.48137-1.769 0.46099-1.65-0.0204-2.2039-0.2445-1.231-0.49804zm59.36-0.098c-0.26888-0.43506 1.0546-0.61082 2.941-0.39059 1.8864 0.22022 3.4298 0.57618 3.4298 0.79101 0 0.75258-5.8869 0.38257-6.3708-0.40042zm59.034-0.13989c2.2899-0.37431 4.7861-1.1055 5.5471-1.6248 0.76102-0.51935 0.52511-0.15677-0.52424 0.80573-1.1633 1.067-3.3283 1.7012-5.5471 1.6248l-3.6392-0.12518zm36.65-0.8191c-1.0494-0.9625-1.2561-1.3-0.45947-0.75 0.81961 0.56586 12.562 1.2315 27.047 1.5332l25.599 0.53322-25.139 0.21678c-22.733 0.19603-25.322 0.0492-27.047-1.5332zm74.127 0.19483c-1.8566-1.4874-1.8411-1.5066 0.35508-0.44008 4.1018 1.9919 8.4024 0.84897 10.922-2.9026 1.255-1.8688 2.2819-2.9159 2.2819-2.3267s-1.165 2.4557-2.5889 4.1479c-2.9435 3.4981-7.6824 4.1554-10.97 1.5216zm68.756 0.60611c2.0337-0.39549 4.3049-1.1312 5.0471-1.635 0.74224-0.50377 0.49097-0.12844-0.55838 0.83406-1.0562 0.96877-3.3093 1.6987-5.0471 1.635-3.0993-0.11354-3.0922-0.12414 0.55838-0.83406zm-395.39-0.73405c0.72187-0.28887 1.5844-0.25335 1.9167 0.0789 0.33229 0.33229-0.25834 0.56864-1.3125 0.52522-1.165-0.048-1.4019-0.28494-0.60417-0.60416zm27 0c0.72187-0.28887 1.5844-0.25335 1.9167 0.0789 0.33229 0.33229-0.25834 0.56864-1.3125 0.52522-1.165-0.048-1.4019-0.28494-0.60417-0.60416zm65.682-1.323c-0.99854-1.1034-1.6308-2.1843-1.405-2.4021 0.2258-0.21776 1.219 0.685 2.2072 2.0061 2.1824 2.9177 1.6968 3.1574-0.80223 0.39593zm72.625 0.50611c0.89073-1.1 1.8677-2.675 2.171-3.5 0.46813-1.2731 0.56349-1.2588 0.63049 0.095 0.0434 0.87726-0.93355 2.4523-2.171 3.5-2.2308 1.8888-2.2362 1.888-0.63049-0.095zm42.728-1.25c-1.3894-1.5125-3.5376-4.325-4.7738-6.25-1.9996-3.1137-2.016-3.2241-0.14895-1 7.7527 9.2352 10.604 13.435 4.9228 7.25zm180.14-0.5c-1.0899-1.7875-1.9832-3.6625-1.9853-4.1667-5e-3 -1.1397 0.13711-0.95283 2.7819 3.6667 2.6296 4.593 1.9565 5.0154-0.79657 0.5zm-392.99 1.25c-0.825-0.53316-1.05-0.96937-0.5-0.96937s1.675 0.43621 2.5 0.96937 1.05 0.96937 0.5 0.96937-1.675-0.43621-2.5-0.96937zm39.805-2.0608c3.4778-1.9944 6.319-4.6415 8.25-7.6864 1.62-2.5544 2.9454-4.1738 2.9454-3.5986 0 3.587-11.731 14.376-15.588 14.336-0.50168-5e-3 1.475-1.3783 4.3925-3.0514zm118.76 1.354c-0.54268-1.4252-0.42782-1.5401 0.5598-0.5598 0.68342 0.67834 0.99067 1.4852 0.68278 1.7931s-0.86705-0.24711-1.2426-1.2333zm-49-0.58626c0.37553-0.98622 0.93469-1.5412 1.2426-1.2333s6.4e-4 1.1148-0.68278 1.7931c-0.98762 0.98026-1.1025 0.8654-0.5598-0.5598zm-115.69-2.4569c-1.2439-1.5861-1.2085-1.6214 0.37756-0.37756 0.9625 0.75485 1.75 1.5424 1.75 1.75 0 0.82304-0.82119 0.29331-2.1276-1.3724zm234.46-4.75c4e-3 -3.85 0.18518-5.3025 0.40166-3.2277 0.21647 2.0748 0.21284 5.2248-8e-3 7-0.22091 1.7752-0.39803 0.0777-0.39359-3.7723zm26.128-33.5c0-22.275 0.13167-31.388 0.29261-20.25 0.16093 11.138 0.16093 29.362 0 40.5-0.16094 11.138-0.29261 2.025-0.29261-20.25zm152.68 38.332c-0.0749-1.1925-0.39516-2.9925-0.71169-4-0.54481-1.7341-0.51463-1.7369 0.56579-0.053 0.62771 0.97831 0.94797 2.7783 0.71168 4-0.42917 2.219-0.42973 2.2191-0.56578 0.053zm-249.68-37.832c2.8e-4 -21.45 0.1327-30.083 0.29426-19.184s0.16133 28.449-5.1e-4 39c-0.16185 10.551-0.29404 1.6338-0.29375-19.816zm156.7 36.5c0-1.375 0.22698-1.9375 0.50439-1.25s0.27741 1.8125 0 2.5-0.50439 0.125-0.50439-1.25zm-218.81-7c0-4.675 0.17226-6.5875 0.3828-4.25 0.21053 2.3375 0.21053 6.1625 0 8.5-0.21054 2.3375-0.3828 0.425-0.3828-4.25zm-105.35 5c-0.5887-1.1-0.84537-2-0.57037-2s0.98167 0.9 1.5704 2 0.84537 2 0.57037 2-0.98167-0.9-1.5704-2zm339.57-1c0.3678-1.375 1.0858-3.175 1.5955-4 0.64411-1.0425 0.72283-0.73748 0.25808 1-0.3678 1.375-1.0858 3.175-1.5955 4-0.64411 1.0425-0.72283 0.73748-0.25808-1zm15.457 1.5c0-0.55 0.43621-1.675 0.96937-2.5s0.96937-1.05 0.96937-0.5-0.43621 1.675-0.96937 2.5-0.96937 1.05-0.96937 0.5zm44.593-2.0387c-0.96498-2.5147-0.68031-3.1636 0.49853-1.1363 0.58369 1.0038 0.8506 2.0357 0.59313 2.2931s-0.74872-0.26309-1.0917-1.1568zm-77.597-0.92949c-0.90525-1.0908-4.0856-1.5499-12.372-1.7862l-11.154-0.3181 11.095-0.21375c9.9802-0.19228 11.277-0.0128 12.905 1.7862 0.99549 1.1 1.5703 2 1.2774 2s-1.0808-0.66067-1.751-1.4682zm-323.83-3.0318c0.0204-1.65 0.2445-2.2039 0.49804-1.231s0.23687 2.323-0.0371 3c-0.27393 0.67703-0.48137-0.11903-0.46099-1.769zm30.555 1.8377c0.6875-0.27741 1.8125-0.27741 2.5 0s0.125 0.50439-1.25 0.50439-1.9375-0.22698-1.25-0.50439zm385.87-0.87638c-0.96498-2.5147-0.68031-3.1636 0.49853-1.1363 0.58369 1.0038 0.8506 2.0357 0.59313 2.2931s-0.74872-0.26309-1.0917-1.1568zm-392.87-0.12362c0.6875-0.27741 1.8125-0.27741 2.5 0s0.125 0.50439-1.25 0.50439-1.9375-0.22698-1.25-0.50439zm13 0c0.6875-0.27741 1.8125-0.27741 2.5 0s0.125 0.50439-1.25 0.50439-1.9375-0.22698-1.25-0.50439zm178.25-2.3377c-1.1749-1.65-1.9112-3-1.6362-3s1.4613 1.35 2.6362 3 1.9112 3 1.6362 3-1.4613-1.35-2.6362-3zm71.812 2.3169c0.72187-0.28887 1.5844-0.25335 1.9167 0.0789 0.33229 0.33229-0.25834 0.56864-1.3125 0.52522-1.165-0.048-1.4019-0.28494-0.60417-0.60416zm72.218 0.36737c-0.0607-1.6281 2.0696-4.6839 3.2548-4.669 0.83641 0.0105 0.8767 0.24417 0.12936 0.75-0.59701 0.40408-1.5958 1.6347-2.2196 2.7347s-1.1478 1.6329-1.1645 1.1843zm-316.53-1.8546c1.1-0.61027 2.697-1.6091 3.549-2.2196 0.85195-0.61051 0.48936-0.0975-0.80576 1.14-1.2951 1.2375-2.8922 2.2363-3.549 2.2196-0.65683-0.0167-0.29424-0.52972 0.80576-1.14zm238.93-0.15079c-0.27884-0.72665-0.37722-5.7892-0.21862-11.25l0.28837-9.9288 27-0.0846-26.5 0.64108v10.388c0 7.3751 0.36259 10.535 1.25 10.893 0.97906 0.39506 0.97226 0.5215-0.0314 0.58333-0.70477 0.0434-1.5095-0.51558-1.7884-1.2422zm-266.74-2.9288c-3.1137-3.0837-3.1258-3.1225-0.23532-0.75775 1.6755 1.3707 3.4738 2.8332 3.9963 3.25s0.62839 0.75775 0.23531 0.75775c-0.39307 0-2.1914-1.4625-3.9963-3.25zm169.72-14.25c-1e-3 -9.35 0.14916-13.31 0.33401-8.7991 0.18486 4.5105 0.1858 12.16 2e-3 17-0.1837 4.8395-0.33495 1.1491-0.3361-8.2009zm159.62 16c0-0.55 0.43621-1.675 0.96937-2.5s0.96937-1.05 0.96937-0.5-0.43621 1.675-0.96937 2.5-0.96937 1.05-0.96937 0.5zm53.469-0.5c-1.6304-0.70061-1.6875-0.87242-0.30902-0.92971 0.93004-0.0387 1.9691 0.37971 2.309 0.92971 0.71066 1.1499 0.67591 1.1499-2 0zm-393.74-3.75c1.2951-1.2375 3.3422-2.2113 4.549-2.164 1.8202 0.0713 1.7072 0.23191-0.66321 0.94226-1.5716 0.47096-3.6186 1.4448-4.549 2.164s-0.63191 0.29525 0.66321-0.94225zm361.06 2.0669c0.72187-0.28887 1.5844-0.25335 1.9167 0.0789 0.33229 0.33229-0.25834 0.56864-1.3125 0.52522-1.165-0.048-1.4019-0.28494-0.60417-0.60416zm-300.51-7.3169c0-3.025 0.18747-4.2625 0.41659-2.75 0.22913 1.5125 0.22913 3.9875 0 5.5-0.22912 1.5125-0.41659 0.275-0.41659-2.75zm281.73 4.5c0-0.55 0.43621-1.675 0.96937-2.5s0.96937-1.05 0.96937-0.5-0.43621 1.675-0.96937 2.5-0.96937 1.05-0.96937 0.5zm-296.78-4c0.0111-2.2 0.21589-2.9822 0.45508-1.7383s0.23011 3.0439-0.0202 4c-0.25029 0.95609-0.446-0.0617-0.4349-2.2617zm158.75-0.5c-1.1749-1.65-1.9112-3-1.6362-3s1.4613 1.35 2.6362 3 1.9112 3 1.6362 3-1.4613-1.35-2.6362-3zm203.62 0.46134c-0.96498-2.5147-0.68031-3.1636 0.49853-1.1363 0.58369 1.0038 0.8506 2.0357 0.59313 2.2931s-0.74872-0.26309-1.0917-1.1568zm-63.593-0.96134c0-0.55 0.43621-1.675 0.96937-2.5s0.96937-1.05 0.96937-0.5-0.43621 1.675-0.96937 2.5-0.96937 1.05-0.96937 0.5zm-240.74-5c8e-3 -2.75 0.20172-3.7563 0.43157-2.2362 0.22986 1.5201 0.22371 3.7701-0.0136 5-0.23736 1.2299-0.42542-0.0137-0.41792-2.7638zm302.34 0.96134c-0.96498-2.5147-0.68031-3.1636 0.49853-1.1363 0.58369 1.0038 0.8506 2.0357 0.59313 2.2931s-0.74872-0.26309-1.0917-1.1568zm-363.62-2.1406c-2.217-2.3453-2.2586-2.5163-0.36765-1.5105 1.1728 0.62381 2.3962 1.8217 2.7186 2.662 0.78385 2.0427 0.56893 1.9374-2.351-1.1515zm157-0.32073c-1.1749-1.65-1.9112-3-1.6362-3s1.4613 1.35 2.6362 3 1.9112 3 1.6362 3-1.4613-1.35-2.6362-3zm17.963-1.201-2.2432-3.299 5.7804 5.9554 0.53477-25.478 0.53477-25.478-0.0348 25.417c-0.0372 27.204-0.39964 29.018-4.572 22.882zm129.07 2.701c0-0.55 0.43621-1.675 0.96937-2.5s0.96937-1.05 0.96937-0.5-0.43621 1.675-0.96937 2.5-0.96937 1.05-0.96937 0.5zm-286.95-1.1682c-0.0434-0.64252-0.33793-1.9925-0.65446-3-0.54705-1.7412-0.51883-1.7434 0.57078-0.0441 0.63045 0.98322 0.92496 2.3332 0.65445 3-0.35498 0.87499-0.51379 0.88727-0.57077 0.0441zm304.54-0.8879c-0.34102-0.88868-0.17504-2.3646 0.36883-3.2798 0.81467-1.3709 0.94706-1.2237 0.75159 0.83594l-0.23726 2.5 11.676 0.2811c11.45 0.27565 11.686 0.23691 12.164-2 0.44125-2.065 0.47191-2.0443 0.32362 0.2189l-0.1638 2.5-12.132 0.27983c-10.414 0.24021-12.219 0.0511-12.752-1.3359zm-244.54-1.0272c0.048-1.165 0.28494-1.4019 0.60416-0.60417 0.28887 0.72187 0.25335 1.5844-0.0789 1.9167-0.33229 0.33229-0.56864-0.25834-0.52522-1.3125zm117.22-4.4167c0-3.025 0.18747-4.2625 0.41659-2.75 0.22913 1.5125 0.22913 3.9875 0 5.5-0.22912 1.5125-0.41659 0.275-0.41659-2.75zm167.32 3.4613c-0.96498-2.5147-0.68031-3.1636 0.49853-1.1363 0.58369 1.0038 0.8506 2.0357 0.59313 2.2931s-0.74872-0.26309-1.0917-1.1568zm-371.35-1.1543c0.97297-0.25354 2.323-0.23687 3 0.0371 0.67703 0.27393-0.11903 0.48137-1.769 0.46099-1.65-0.0204-2.2039-0.2445-1.231-0.49804zm315.76 0.19299c0-0.55 0.43621-1.675 0.96937-2.5s0.96937-1.05 0.96937-0.5-0.43621 1.675-0.96937 2.5-0.96937 1.05-0.96937 0.5zm-323.27-1.2073c1.2439-0.23919 3.0439-0.23011 4 0.0202 0.95609 0.25029-0.0617 0.446-2.2617 0.4349-2.2-0.0111-2.9822-0.21589-1.7383-0.45508zm76.238-1.2927c-0.5887-1.1-0.84537-2-0.57037-2s0.98167 0.9 1.5704 2 0.84537 2 0.57037 2-0.98167-0.9-1.5704-2zm20 0c0.5887-1.1 1.2954-2 1.5704-2s0.0183 0.9-0.57037 2c-0.5887 1.1-1.2954 2-1.5704 2s-0.0183-0.9 0.57037-2zm73.872 0.25c-1.2439-1.5861-1.2085-1.6214 0.37756-0.37756 0.9625 0.75485 1.75 1.5424 1.75 1.75 0 0.82304-0.82119 0.29331-2.1276-1.3724zm114.41-0.55055c1.2178-1.2653 2.399-2.1681 2.6248-2.0061 0.58355 0.4185-3.0546 4.3067-4.0298 4.3067-0.44511 0 0.18714-1.0352 1.405-2.3006zm-290.54 0.63827c0.6875-0.27741 1.8125-0.27741 2.5 0s0.125 0.50439-1.25 0.50439-1.9375-0.22698-1.25-0.50439zm191.25-5.3377c-2.241-3.3-3.8495-6-3.5745-6s2.3335 2.7 4.5745 6 3.8495 6 3.5745 6-2.3335-2.7-4.5745-6zm-197 4c-1.828-1.1813-0.24909-1.1813 2.5 0 1.3187 0.56668 1.4891 0.87815 0.5 0.9144-0.825 0.0302-2.175-0.38124-3-0.9144zm388.62-0.53866c-0.96498-2.5147-0.68031-3.1636 0.49853-1.1363 0.58369 1.0038 0.8506 2.0357 0.59313 2.2931s-0.74872-0.26309-1.0917-1.1568zm-348.22-2.7113-1.905-2.25 2.25 1.905c1.2375 1.0477 2.25 2.0602 2.25 2.25 0 0.80025-0.80479 0.20945-2.595-1.905zm134.54-4.923c-4.8359-6.6488-5.3168-7.0367-6.5802-5.3089-1.5162 2.0735-1.8627 0.82023-0.4088-1.4784 0.79976-1.2644 1.1676-1.2394 2.7427 0.18597 2.036 1.8426 10.627 13.774 9.9178 13.774-0.24982 0-2.802-3.2278-5.6714-7.173zm162.09 6.673c0-0.55 0.43621-1.675 0.96937-2.5s0.96937-1.05 0.96937-0.5-0.43621 1.675-0.96937 2.5-0.96937 1.05-0.96937 0.5zm35.593-1.0387c-0.96498-2.5147-0.68031-3.1636 0.49853-1.1363 0.58369 1.0038 0.8506 2.0357 0.59313 2.2931s-0.74872-0.26309-1.0917-1.1568zm-380.41-2.2113c-2.3918-2.3375-2.4317-2.4522-0.26577-0.76498 4.2679 3.3246 4.4717 3.515 3.764 3.515-0.37633 0-1.9505-1.2375-3.4982-2.75zm93.164 1.5c-0.40522-0.6875-1.3792-2.375-2.1645-3.75-1.3708-2.4002-1.3607-2.4202 0.25102-0.5 2.0312 2.4198 3.782 5.5 3.1264 5.5-0.26189 0-0.80771-0.5625-1.2129-1.25zm25.619-0.75c0.5887-1.1 1.2954-2 1.5704-2s0.0183 0.9-0.57037 2c-0.5887 1.1-1.2954 2-1.5704 2s-0.0183-0.9 0.57037-2zm242.03 1.5c0-0.55 0.43621-1.675 0.96937-2.5s0.96937-1.05 0.96937-0.5-0.43621 1.675-0.96937 2.5-0.96937 1.05-0.96937 0.5zm33.593-3.0387c-0.96498-2.5147-0.68031-3.1636 0.49853-1.1363 0.58369 1.0038 0.8506 2.0357 0.59313 2.2931s-0.74872-0.26309-1.0917-1.1568zm-352.62-1.4613c-1.925-1.0539-3.1402-1.935-2.7003-1.9581 1.0597-0.0556 6.7003 2.8772 6.7003 3.4838 0 0.65451-0.0585 0.63219-4-1.5257zm263.62-0.53866c-0.96498-2.5147-0.68031-3.1636 0.49853-1.1363 0.58369 1.0038 0.8506 2.0357 0.59313 2.2931s-0.74872-0.26309-1.0917-1.1568zm41.407 1.0387c0-0.55 0.43621-1.675 0.96937-2.5s0.96937-1.05 0.96937-0.5-0.43621 1.675-0.96937 2.5-0.96937 1.05-0.96937 0.5zm-223.82-4.0853c1.2617-2.2469 3.1012-5.1719 4.0879-6.5 0.98668-1.3281 0.76168-0.57629-0.5 1.6706-1.2617 2.2469-3.1012 5.1719-4.0879 6.5-0.98668 1.3281-0.76168 0.57629 0.5-1.6706zm239.82 3.0853c0-0.55 0.43621-1.675 0.96937-2.5s0.96937-1.05 0.96937-0.5-0.43621 1.675-0.96937 2.5-0.96937 1.05-0.96937 0.5zm-368.08-3.5856c-0.61391-1.1471-0.92784-2.274-0.69762-2.5042s0.93203 0.70832 1.5596 2.0856c1.3781 3.0245 0.70709 3.3504-0.86196 0.41858zm382.67 0.54699c-0.96498-2.5147-0.68031-3.1636 0.49853-1.1363 0.58369 1.0038 0.8506 2.0357 0.59313 2.2931s-0.74872-0.26309-1.0917-1.1568zm-346.35-0.15433c0.97297-0.25354 2.323-0.23687 3 0.0371 0.67703 0.27393-0.11903 0.48137-1.769 0.46099-1.65-0.0204-2.2039-0.2445-1.231-0.49804zm-8.019-0.99634c0.9625-0.25152 2.5375-0.25152 3.5 0 0.9625 0.25153 0.175 0.45733-1.75 0.45733s-2.7125-0.2058-1.75-0.45733zm249.95-0.51067c-0.66-0.66-1.2-1.646-1.2-2.1911s0.5625-0.23795 1.25 0.68261c1.0443 1.3983 3.5538 1.7228 15.25 1.9718l14 0.29805-14.05 0.21934c-9.8549 0.15386-14.408-0.13895-15.25-0.98065zm75.831 0.7c0-0.55 0.43621-1.675 0.96937-2.5s0.96937-1.05 0.96937-0.5-0.43621 1.675-0.96937 2.5-0.96937 1.05-0.96937 0.5zm-334.78-1.5312c-3.1827-1.2793-2.801-2.039 0.5-0.99523 5.6413 1.7838 5.8089 1.868 3.75 1.8841-1.1 9e-3 -3.0125-0.39142-4.25-0.88883zm90.405 0.28116c-0.25494-0.4125 0.57553-0.75 1.8455-0.75s2.1004 0.3375 1.8455 0.75-1.0854 0.75-1.8455 0.75-1.5906-0.3375-1.8455-0.75zm260.38 0.25c0-0.55 0.43621-1.675 0.96937-2.5s0.96937-1.05 0.96937-0.5-0.43621 1.675-0.96937 2.5-0.96937 1.05-0.96937 0.5zm26.593-1.0387c-0.96498-2.5147-0.68031-3.1636 0.49853-1.1363 0.58369 1.0038 0.8506 2.0357 0.59313 2.2931s-0.74872-0.26309-1.0917-1.1568zm-195.62-3.4613c-1.1749-1.65-1.9112-3-1.6362-3s1.4613 1.35 2.6362 3 1.9112 3 1.6362 3-1.4613-1.35-2.6362-3zm179.62 1.4613c-0.96498-2.5147-0.68031-3.1636 0.49853-1.1363 0.58369 1.0038 0.8506 2.0357 0.59313 2.2931s-0.74872-0.26309-1.0917-1.1568zm-382.54-1.0447c0.048-1.165 0.28494-1.4019 0.60416-0.60417 0.28887 0.72187 0.25335 1.5844-0.0789 1.9167-0.3323 0.33229-0.56864-0.25834-0.52522-1.3125zm15.447-1.367c-0.83912-1.6227-1.4739-4.2102-1.4107-5.75 0.10415-2.5355 0.18103-2.4694 0.81485 0.70034 0.38491 1.925 1.249 4.5125 1.9202 5.75 0.67119 1.2375 0.99106 2.25 0.71083 2.25-0.28022 0-1.1961-1.3276-2.0352-2.9503zm93.474 0.95034c-0.5887-1.1-0.84537-2-0.57037-2s0.98167 0.9 1.5704 2 0.84537 2 0.57037 2-0.98167-0.9-1.5704-2zm-21.181-5.75c-6.1937-9.3444-8.3689-12.924-7.1391-11.75 1.8898 1.8048 12.742 18.5 12.026 18.5-0.22676 0-2.4256-3.0375-4.8864-6.75zm270.21 6.25c0-0.55 0.43621-1.675 0.96937-2.5s0.96937-1.05 0.96937-0.5-0.43621 1.675-0.96937 2.5-0.96937 1.05-0.96937 0.5zm38.593-2.0387c-0.96498-2.5147-0.68031-3.1636 0.49853-1.1363 0.58369 1.0038 0.8506 2.0357 0.59313 2.2931s-0.74872-0.26309-1.0917-1.1568zm-277.62-1.4613c0.5887-1.1 1.2954-2 1.5704-2s0.0183 0.9-0.57037 2c-0.5887 1.1-1.2954 2-1.5704 2s-0.0183-0.9 0.57037-2zm261.07-1.7425-1.2534-2.751-1.909 2.3575c-2.0845 2.5743-2.508 2.1237-0.87383-0.92978 0.56935-1.0638 1.459-1.9343 1.977-1.9343 1.1328 0 4.4585 4.8627 3.7858 5.5354-0.26016 0.26016-1.0371-0.76492-1.7264-2.278zm-380.84-1.2575c0-1.925 0.2058-2.7125 0.45733-1.75 0.25152 0.9625 0.25152 2.5375 0 3.5-0.25153 0.9625-0.45733 0.175-0.45733-1.75zm197.77-2.5c-1.7028-2.475-2.8711-4.5-2.5961-4.5s1.8932 2.025 3.5961 4.5 2.8711 4.5 2.5961 4.5-1.8932-2.025-3.5961-4.5zm163.03 4c0-0.55 0.43621-1.675 0.96937-2.5s0.96937-1.05 0.96937-0.5-0.43621 1.675-0.96937 2.5-0.96937 1.05-0.96937 0.5zm-80.646-6 0.11566-6 40-0.0874-39 1.0874-0.61566 5.5-0.61565 5.5zm-175 3.25c-0.40522-0.6875-1.3792-2.375-2.1645-3.75-1.3708-2.4002-1.3607-2.4202 0.25102-0.5 2.0312 2.4198 3.782 5.5 3.1264 5.5-0.26189 0-0.80771-0.5625-1.2129-1.25zm17.619-0.75c0.5887-1.1 1.2954-2 1.5704-2s0.0183 0.9-0.57037 2c-0.5887 1.1-1.2954 2-1.5704 2s-0.0183-0.9 0.57037-2zm17 0c0.5887-1.1 1.2954-2 1.5704-2s0.0183 0.9-0.57037 2c-0.5887 1.1-1.2954 2-1.5704 2s-0.0183-0.9 0.57037-2zm223.03-1.5c0-0.55 0.43621-1.675 0.96937-2.5s0.96937-1.05 0.96937-0.5-0.43621 1.675-0.96937 2.5-0.96937 1.05-0.96937 0.5zm-347.03-1.159c0-0.54579 1.2375-2.0833 2.75-3.4167l2.75-2.4243-2.5 3c-1.375 1.65-2.6125 3.1875-2.75 3.4167-0.1375 0.22916-0.25-0.0299-0.25-0.57569zm-14.921-1.9243c0.048-1.165 0.28494-1.4019 0.60416-0.60417 0.28887 0.72187 0.25335 1.5844-0.0789 1.9167-0.3323 0.33229-0.56864-0.25834-0.52522-1.3125zm46.357 0.4792c-0.37532-0.60727-2.5394-1.9474-4.809-2.978-2.2696-1.0307-3.5418-1.8838-2.827-1.8959 1.8338-0.031 6.6013 2.5514 8.1456 4.4121 0.71478 0.86127 1.0461 1.5659 0.73618 1.5659-0.30988 0-0.8705-0.49686-1.2458-1.1041zm78.564-0.89587c0.5887-1.1 1.2954-2 1.5704-2s0.0183 0.9-0.57037 2c-0.5887 1.1-1.2954 2-1.5704 2s-0.0183-0.9 0.57037-2zm-66.079-3.7509c0.47784-3.4512 0.54755-3.5209 0.87727-0.87727 0.19699 1.5795-0.0366 3.2666-0.5191 3.7491-0.50302 0.50302-0.65582-0.72209-0.35817-2.8718zm40.079 0.75091c-0.5887-1.1-0.84537-2-0.57037-2s0.98167 0.9 1.5704 2 0.84537 2 0.57037 2-0.98167-0.9-1.5704-2zm45 0c0.5887-1.1 1.2954-2 1.5704-2s0.0183 0.9-0.57037 2c-0.5887 1.1-1.2954 2-1.5704 2s-0.0183-0.9 0.57037-2zm220.03 1.5c0-0.55 0.43621-1.675 0.96937-2.5s0.96937-1.05 0.96937-0.5-0.43621 1.675-0.96937 2.5-0.96937 1.05-0.96937 0.5zm-363.03-1.1422c0-0.53655 0.69982-1.849 1.5552-2.9167 1.4664-1.8303 1.4872-1.7984 0.36454 0.55887-1.4578 3.061-1.9197 3.6283-1.9197 2.3578zm21.271-1.5464c0.67597-0.42941 4.379-0.73543 8.229-0.68006 8.1218 0.11683 6.917 0.60677-2.729 1.1098-3.701 0.19303-6.176-3.8e-4 -5.5-0.42979zm106.8-2.3114c1.2353-2.2 2.6754-4.45 3.2003-5 1.4975-1.5693-1.9272 4.7658-3.7841 7-0.91422 1.1-0.6515 0.2 0.58383-2zm59.926-0.5c-1.1749-1.65-1.9112-3-1.6362-3s1.4613 1.35 2.6362 3 1.9112 3 1.6362 3-1.4613-1.35-2.6362-3zm132.12 1.5c0.89073-1.1 1.8677-2.675 2.171-3.5 0.46813-1.2731 0.56349-1.2588 0.63049 0.095 0.0434 0.87726-0.93355 2.4523-2.171 3.5-2.2308 1.8888-2.2362 1.888-0.63049-0.095zm68.504-1.0387c-0.96498-2.5147-0.68031-3.1636 0.49853-1.1363 0.58369 1.0038 0.8506 2.0357 0.59313 2.2931s-0.74872-0.26309-1.0917-1.1568zm-293.24-0.71134c-0.40522-0.6875-1.3792-2.375-2.1645-3.75-1.3708-2.4002-1.3607-2.4202 0.25102-0.5 2.0312 2.4198 3.782 5.5 3.1264 5.5-0.26189 0-0.80771-0.5625-1.2129-1.25zm51.443-2.7038c0.92166-2.1746 1.8156-3.5551 1.9865-3.0678 0.3155 0.89962-2.5287 7.0216-3.2622 7.0216-0.22003 0 0.35403-1.7792 1.2757-3.9538zm218.21 3.4538c0-0.55 0.43621-1.675 0.96937-2.5s0.96937-1.05 0.96937-0.5-0.43621 1.675-0.96937 2.5-0.96937 1.05-0.96937 0.5zm-362.03-1.8129c0-0.1721 1.4625-1.6346 3.25-3.25l3.25-2.9371-2.9371 3.25c-2.7378 3.0295-3.5629 3.7096-3.5629 2.9371zm73.158-3.6871c0-1.375 0.22698-1.9375 0.50439-1.25s0.27741 1.8125 0 2.5-0.50439 0.125-0.50439-1.25zm309.15-2.081c-1.1876-2.1682-1.7407-3.6834-1.229-3.3672 1.1091 0.68544 4.21 6.4877 3.726 6.9717-0.18571 0.18571-1.3094-1.4363-2.497-3.6045zm-331.96 2.0299c-0.57812-0.57812-3.7056-2.1424-6.95-3.4763-3.2444-1.3338-5.2239-2.4314-4.3989-2.4391 2.0289-0.0189 11.586 4.487 12.436 5.8637 0.86293 1.3962 0.28446 1.4237-1.0876 0.0517zm313.65 0.37786c-5e-3 -1.6474 4.9314-7.3331 6.3352-7.2963 0.63861 0.0167 0.34297 0.50623-0.65698 1.0878-0.99995 0.58157-2.6858 2.4804-3.7463 4.2196-1.0605 1.7392-1.9299 2.6342-1.9319 1.9889zm-200-2.0051c0-0.55642 1.0125-1.8689 2.25-2.9167l2.25-1.905-1.9893 2.5c-1.0941 1.375-2.1066 2.6875-2.25 2.9167-0.14336 0.22916-0.26066-0.03859-0.26066-0.59502zm153.61-2.1696-1.894-2.6521 2.3385 2.2222c1.2862 1.2222 2.1385 2.4156 1.894 2.6521-0.24444 0.23641-1.2968-0.76359-2.3385-2.2222zm-309.16 0.40311c1.0676-0.85535 2.3801-1.5552 2.9167-1.5552 1.2705 0 0.70323 0.4619-2.3578 1.9197-2.3573 1.1226-2.3892 1.1018-0.55887-0.36454zm77.964-0.80517-1.905-2.25 2.25 1.905c2.1144 1.7902 2.7052 2.595 1.905 2.595-0.18976 0-1.2023-1.0125-2.25-2.25zm92.346 0.57206c-0.92287-0.92287-3.6068-1.9916-5.9643-2.3748l-4.2863-0.69689 3.6942-0.12516c2.6258-0.089 4.5057 0.58871 6.5 2.3432 1.5432 1.3576 2.5647 2.4826 2.27 2.5-0.29465 0.0174-1.2908-0.72347-2.2137-1.6463zm42.749-0.32206c0.99549-1.1 2.035-2 2.31-2s-0.31449 0.9-1.31 2-2.035 2-2.31 2 0.31449-0.9 1.31-2zm-147.5 0.62244c0-0.20765 0.7875-0.99515 1.75-1.75 1.5861-1.2439 1.6214-1.2085 0.37756 0.37756-1.3064 1.6658-2.1276 2.1955-2.1276 1.3724zm68.872-1.3724c-1.2439-1.5861-1.2085-1.6214 0.37756-0.37756 1.6658 1.3064 2.1955 2.1276 1.3724 2.1276-0.20765 0-0.99515-0.7875-1.75-1.75zm119.35 0.17128c0.94941-0.99123 1.9414-1.587 2.2045-1.3239s-0.5137 1.0741-1.7262 1.8022c-2.1063 1.2649-2.1276 1.2436-0.47833-0.47833zm-129.79-0.84712c1.0676-0.86579 3.5426-1.5178 5.5-1.449l3.5589 0.12516-4 0.65989c-2.2 0.36294-4.675 1.015-5.5 1.449-0.825 0.43401-0.62649 0.0807 0.44113-0.78505zm100.24 0.77022c-0.36059-0.3606-2.3481-0.98385-4.4167-1.385-3.5589-0.69018-3.5966-0.73556-0.70217-0.84438 1.6824-0.0633 3.9324 0.54569 5 1.3532 1.0676 0.8075 1.6786 1.4825 1.3578 1.5-0.32084 0.0175-0.87837-0.26323-1.239-0.62382zm-218.87-1.0275c0.72187-0.28887 1.5844-0.25335 1.9167 0.0789 0.33229 0.33229-0.25834 0.56864-1.3125 0.52522-1.165-0.048-1.4019-0.28494-0.60417-0.60416zm4.4565-1.0099c0.97297-0.25354 2.323-0.23687 3 0.0371 0.67703 0.27393-0.11903 0.48137-1.769 0.46099-1.65-0.0204-2.2039-0.2445-1.231-0.49804zm13.981 4e-3c0.9625-0.25152 2.5375-0.25152 3.5 0 0.9625 0.25153 0.175 0.45733-1.75 0.45733s-2.7125-0.2058-1.75-0.45733zm47 0c0.9625-0.25152 2.5375-0.25152 3.5 0 0.9625 0.25153 0.175 0.45733-1.75 0.45733s-2.7125-0.2058-1.75-0.45733zm199.06-0.0583c7.0445-0.17214 18.295-0.17164 25 1e-3 6.7055 0.17275 0.94178 0.31359-12.808 0.31298s-19.236-0.14195-12.192-0.31409zm94.442-0.91499c0.6875-0.27741 1.8125-0.27741 2.5 0s0.125 0.50439-1.25 0.50439-1.9375-0.22698-1.25-0.50439zm-158.84-140.54c-8.9647-10.59-8.4996-9.5544-5.6648-12.61 3.1209-3.3644 19.755-24.928 34.65-44.918 6.243-8.3787 11.717-15.008 12.164-14.732 1.3537 0.83665-0.0206 7.3376-4.221 19.966-5.702 17.143-15.362 36.711-22.979 46.549-8.2797 10.694-8.4918 10.951-9.0594 10.951-0.26577 0-2.4662-2.3424-4.8898-5.2053zm-67.389-233.04c-5.9515-17.745-2.62-40.261 8.0215-54.213 2.4974-3.2742 10.804-9.5372 12.649-9.5372 0.46497 0-0.22024 2.1375-1.5227 4.75-3.3708 6.7612-4.7901 13.444-4.7703 22.462 0.0146 6.6692 0.55062 9.1468 3.5834 16.565 1.9614 4.7976 3.6686 9.11 3.7937 9.583 0.16977 0.6415-19.439 11.457-21.054 11.613-0.15477 0.0149-0.47005-0.53537-0.70063-1.2229zm108.98-0.90791c-1.65-1.1064-6.2762-3.5434-10.28-5.4156-7.1966-3.3646-7.2629-3.4307-5.7503-5.7393 0.84163-1.2845 2.6554-5.6434 4.0305-9.6865 4.2308-12.439 2.8891-29.223-3.0579-38.251-3.0403-4.6154-2.0805-4.7166 4.199-0.44273 5.8602 3.9886 12.281 13.136 15.336 21.847 3.1644 9.0238 3.8913 24.733 1.5453 33.4-0.95952 3.5447-2.0321 6.4121-2.3835 6.3719-0.35142-0.0402-1.989-0.97837-3.639-2.0848z" fill="#2c1970"/>
  <path d="m195 779.66c-7.8389-1.8596-12.093-3.9068-15.78-7.5944-4.1932-4.1932-4.4262-8.9718-0.58492-11.993 3.5431-2.787 6.5229-2.6092 9.4408 0.56326 5.7107 6.209 20.427 8.7662 29.152 5.0656 6.6323-2.8128 9.5119-10.436 6.2932-16.66-1.844-3.5658-7.162-5.6209-18.287-7.0666-20.078-2.6093-27.685-9.4694-27.692-24.975-6e-3 -14.343 7.5292-22.507 23.158-25.088 11.675-1.9281 27.343 1.9242 33.142 8.1486 4.2926 4.6076 1.5852 12.939-4.2047 12.939-1.2994 0-4.0534-1.3438-6.1201-2.9862-4.5734-3.6345-9.1661-5.0009-16.833-5.0083-6.0883-6e-3 -8.7024 0.89494-12.419 4.2793-4.586 4.1761-3.7985 12.825 1.4828 16.286 1.4002 0.91744 7.7782 2.4554 14.173 3.4176 21.407 3.221 29.079 10.093 29.079 26.047 0 10.862-7.809 20.805-18.823 23.967-6.055 1.7382-19.179 2.0815-25.177 0.65855zm90.073-2.2952c-1.8879-2.4001-2.0726-3.9736-2.0726-17.662 0-17.469 1.5989-13.484-16.687-41.595-11.726-18.026-12.988-21.282-9.4844-24.453 2.6996-2.4431 8.3979-2.1302 10.834 0.59501 1.1062 1.2375 6.404 9.3375 11.773 18 5.3687 8.6625 10.34 15.75 11.048 15.75 1.5056 0 1.9516-0.65329 13.175-19.299 4.7014-7.8107 9.2627-14.764 10.136-15.451 3.9523-3.111 12.206-0.43995 12.206 3.9502 0 0.84847-3.0015 6.438-6.6699 12.421-3.6685 5.9832-9.9685 16.264-14 22.846l-7.3301 11.967v14.848c0 18.199-0.91606 20.669-7.6774 20.701-2.2529 0.0109-3.7804-0.75131-5.25-2.6196zm61.966 0.4463c-1.98-2.1253-2.039-3.3213-2.039-41.365 0-38.12 0.0559-39.248 2.0726-41.811 2.2173-2.8189 7.2791-3.5874 10.892-1.6537 1.0083 0.53963 8.4864 10.552 16.618 22.25 23.004 33.092 23.586 33.879 24.786 33.48 0.7932-0.26406 1.2109-8.1042 1.3984-26.248 0.25762-24.935 0.34536-25.954 2.4243-28.167 2.4849-2.6451 7.3868-3.0579 10.367-0.87315 1.8691 1.3701 1.9378 2.935 1.8516 42.161l-0.0895 40.738-2.2713 1.8392c-3.5036 2.837-9.1447 2.416-12.206-0.91085-1.3917-1.5125-10.244-13.601-19.671-26.864s-17.857-24.709-18.733-25.436c-1.3267-1.1011-1.741-1.082-2.485 0.11436-0.49112 0.78964-0.79503 12.527-0.67536 26.082 0.20303 22.999 0.0903 24.787-1.6858 26.75-2.5726 2.8426-7.8665 2.7999-10.554-0.0853zm97.184 0.63186-2.2225-1.5567v-81.773l2.2225-1.5567c1.8688-1.309 6.2335-1.5567 27.427-1.5567h25.205l2.1291 2.7067c2.3297 2.9617 2.0741 6.4462-0.69849 9.523-1.3626 1.5121-4.0897 1.7637-21.672 2l-20.113 0.27027-0.28745 9.8524c-0.18688 6.4056 0.11834 10.341 0.87245 11.25 0.89189 1.0747 4.4242 1.4011 15.287 1.4129 7.7702 8e-3 14.623 0.34592 15.228 0.75 1.4515 0.96919 3.3997 4.7274 3.3997 6.5582 0 0.80023-0.85889 2.5173-1.9086 3.8158-1.8192 2.2501-2.6277 2.3842-17.25 2.8608l-15.341 0.5-0.28679 10.413c-0.15773 5.7273 0.1087 10.809 0.59207 11.292s9.8374 1.121 20.787 1.417c16.169 0.43705 20.237 0.83384 21.658 2.1129 2.3434 2.1089 2.2169 6.7979-0.25 9.2648-1.8945 1.8945-3.3333 2-27.277 2-21.26 0-25.631-0.24744-27.5-1.5567zm73.777-0.4433c-1.1-1.1-2-2.6481-2-3.4401 0-0.79207 7.0154-19.016 15.59-40.498 17.21-43.117 17.55-43.7 24.9-42.72 2.3587 0.31464 4.6854 1.3913 5.6914 2.6336 0.93586 1.1557 4.7149 9.8466 8.3978 19.313s10.459 26.544 15.059 37.951c4.5993 11.407 8.3624 21.859 8.3624 23.227 0 3.2458-3.8535 5.7676-8.1792 5.3525-3.0906-0.29656-3.606-0.90774-7.4369-8.8186l-4.1161-8.5-17.384-0.51646c-9.5611-0.28405-18.328-0.20885-19.481 0.16711-1.4081 0.45898-2.8492 2.6947-4.3863 6.8049-3.1929 8.5377-5.3694 11.044-9.5892 11.044-2.0941 0-4.2055-0.77804-5.4274-2zm49.669-31.58c0.70451-1.8359-8.3617-26.782-10.848-29.849-1.1122-1.3718-2.0091-1.7334-2.6568-1.071-1.7749 1.8152-12.061 29.604-11.5 31.067 0.8515 2.219 24.15 2.082 25.005-0.14698z" fill="#050505"/>
 </g>
</svg>
